<?xml version="1.0" encoding="UTF-8"?>
<svg width="53px" height="48px" viewBox="0 0 53 48" version="1.1" xmlns="http://www.w3.org/2000/svg" xmlns:xlink="http://www.w3.org/1999/xlink">
    <!-- Generator: sketchtool 54 (76480) - https://sketchapp.com -->
    <title>2A72C3B9-3D42-485A-9BCC-344732B16151</title>
    <desc>Created with sketchtool.</desc>
    <g id="Page-1" stroke="none" stroke-width="1" fill="none" fill-rule="evenodd">
        <g id="Landing-page" transform="translate(-220.000000, -1834.000000)" fill="#8AC34E" fill-rule="nonzero">
            <path d="M272.359397,1847.23953 C271.680412,1845.97557 270.548226,1845.05109 269.171345,1844.63598 C267.794463,1844.22063 266.337728,1844.36489 265.069652,1845.04155 C263.801575,1845.71845 262.873692,1846.84675 262.457148,1848.21892 C262.179531,1849.13292 262.156882,1850.08136 262.369357,1850.98676 L256.554325,1854.0899 C254.785649,1851.61525 252.028617,1849.89126 248.860878,1849.49406 L248.860878,1844.54872 C251.153268,1843.93256 252.84536,1841.84348 252.84536,1839.36697 C252.84536,1836.40763 250.429454,1834 247.459947,1834 C244.490439,1834 242.0743,1836.40763 242.0743,1839.3672 C242.0743,1841.84371 243.766625,1843.93279 246.058782,1844.54895 L246.058782,1849.49382 C242.012893,1850.00132 238.635014,1852.67329 237.13415,1856.30789 L230.769953,1854.59902 C230.771354,1853.66896 230.533662,1852.75031 230.055478,1851.92263 C229.337968,1850.68007 228.177763,1849.79027 226.788973,1849.41727 C223.9208,1848.64707 220.960399,1850.34593 220.187786,1853.20335 C219.813504,1854.58762 220.002629,1856.03424 220.720139,1857.27657 C221.43765,1858.5189 222.597854,1859.40893 223.986644,1859.78193 C224.452921,1859.90712 224.925968,1859.96901 225.396448,1859.96901 C226.3269,1859.96901 227.245677,1859.72632 228.074094,1859.2514 C228.904613,1858.77509 229.573324,1858.10006 230.041002,1857.29519 L236.405432,1859.00429 C236.336786,1859.50247 236.298261,1860.00997 236.298261,1860.52677 C236.298261,1863.09123 237.175944,1865.45396 238.644587,1867.33757 L233.978319,1871.98786 C231.920351,1870.80952 229.244572,1871.08991 227.487805,1872.8402 C225.388042,1874.93277 225.388042,1878.33771 227.487805,1880.43051 C228.537802,1881.47692 229.916786,1882 231.296003,1882 C232.674986,1882 234.054203,1881.47692 235.1042,1880.43051 C236.860735,1878.67976 237.142088,1876.01315 235.959469,1873.96246 L240.625737,1869.31217 C242.515827,1870.77578 244.886436,1871.65046 247.459947,1871.65046 C250.033457,1871.65046 252.404066,1870.77578 254.294156,1869.31217 L258.960424,1873.96246 C257.778038,1876.01338 258.059158,1878.67999 259.815693,1880.43051 C260.865691,1881.47692 262.244674,1882 263.623891,1882 C265.003107,1882 266.382091,1881.47668 267.432089,1880.43051 C269.531851,1878.33794 269.531851,1874.933 267.432089,1872.8402 C265.675554,1871.08968 262.999542,1870.80952 260.941808,1871.98786 L256.27554,1867.33757 C257.744182,1865.45396 258.621866,1863.09147 258.621866,1860.52677 C258.621866,1859.12575 258.358024,1857.78546 257.881474,1856.54942 L263.692303,1853.4486 C264.33066,1854.12689 265.135262,1854.63369 266.052638,1854.91036 C266.568181,1855.06579 267.095165,1855.14281 267.619113,1855.14281 C268.494228,1855.14281 269.361171,1854.92781 270.154331,1854.50455 C271.422641,1853.82789 272.350291,1852.69958 272.766835,1851.32741 C273.183378,1849.95525 273.038382,1848.50327 272.359397,1847.23953 L272.359397,1847.23953 Z M268.831152,1852.0427 C268.222914,1852.36753 267.524083,1852.43664 266.863544,1852.23723 C266.203005,1852.03828 265.659911,1851.59454 265.334194,1850.98815 C265.008244,1850.382 264.939132,1849.68533 265.138998,1849.02705 C265.33863,1848.36877 265.783893,1847.82754 266.392364,1847.50294 C266.77295,1847.2998 267.188793,1847.19672 267.608606,1847.19672 C267.85984,1847.19672 268.112708,1847.23372 268.359972,1847.30818 C269.020511,1847.50713 269.563605,1847.95086 269.889322,1848.55725 C270.215272,1849.16341 270.284384,1849.85984 270.084518,1850.51812 C269.884886,1851.17686 269.439623,1851.7181 268.831152,1852.0427 L268.831152,1852.0427 Z M255.819536,1860.52654 C255.819536,1865.12028 252.069244,1868.85773 247.459713,1868.85773 C242.850182,1868.85773 239.09989,1865.12028 239.09989,1860.52654 C239.09989,1855.93279 242.850182,1852.19534 247.459713,1852.19534 C252.069244,1852.19534 255.819536,1855.93279 255.819536,1860.52654 Z M244.876162,1839.3672 C244.876162,1837.94733 246.0352,1836.7925 247.459713,1836.7925 C248.884227,1836.7925 250.043264,1837.94757 250.043264,1839.3672 C250.043264,1840.78684 248.884227,1841.94191 247.459713,1841.94191 C246.0352,1841.94191 244.876162,1840.78684 244.876162,1839.3672 Z M224.715595,1857.08577 C224.049219,1856.90683 223.492816,1856.47984 223.148654,1855.88393 C222.804258,1855.28778 222.713665,1854.5939 222.893217,1853.92981 C223.263764,1852.5588 224.684541,1851.74416 226.060022,1852.11344 C226.726398,1852.29237 227.282802,1852.71913 227.627197,1853.31527 C227.971359,1853.91142 228.061953,1854.6053 227.8824,1855.2694 C227.511854,1856.6404 226.091543,1857.45504 224.715595,1857.08577 Z M233.122817,1878.45568 C232.115781,1879.4595 230.476458,1879.4595 229.468955,1878.45568 C228.461685,1877.45186 228.461685,1875.81839 229.468955,1874.81433 C229.97259,1874.31242 230.634296,1874.06158 231.296003,1874.06158 C231.957476,1874.06158 232.619182,1874.31266 233.122817,1874.81433 C234.130086,1875.81839 234.130086,1877.45186 233.122817,1878.45568 Z M265.450471,1874.81433 C266.457741,1875.81815 266.457741,1877.45163 265.450471,1878.45568 C264.443435,1879.4595 262.804112,1879.4595 261.796609,1878.45568 C260.78934,1877.45186 260.78934,1875.81839 261.796609,1874.81433 C262.300244,1874.31242 262.961951,1874.06158 263.623657,1874.06158 C264.28513,1874.06158 264.946837,1874.31242 265.450471,1874.81433 Z" id="Shape"></path>
        </g>
    </g>
</svg>