<?xml version="1.0" encoding="UTF-8"?>
<svg width="48px" height="48px" viewBox="0 0 48 48" version="1.1" xmlns="http://www.w3.org/2000/svg" xmlns:xlink="http://www.w3.org/1999/xlink">
    <!-- Generator: sketchtool 54 (76480) - https://sketchapp.com -->
    <title>98894254-993A-47F1-AC84-621CC862406B</title>
    <desc>Created with sketchtool.</desc>
    <g id="Page-1" stroke="none" stroke-width="1" fill="none" fill-rule="evenodd">
        <g id="Landing-page" transform="translate(-232.000000, -1438.000000)" fill="#8AC34E" fill-rule="nonzero">
            <path d="M272.150372,1474.23436 C271.361629,1475.9699 269.970698,1477.36083 268.235158,1478.14957 L267.573556,1476.69277 C268.956706,1476.06438 270.065179,1474.95591 270.693567,1473.57276 L272.150372,1474.23436 Z M276.127986,1474.84156 C275.026275,1478.31162 272.307618,1481.03027 268.83756,1482.13199 L268.357559,1480.60638 C271.329921,1479.66266 273.658656,1477.33392 274.602381,1474.36156 L276.127986,1474.84156 Z M278.446394,1475.08796 L280,1475.46796 C278.736731,1480.67287 274.672866,1484.73673 269.467963,1486 L269.086361,1484.44799 C273.711907,1483.32502 277.323424,1479.71351 278.446394,1475.08796 Z M268.79996,1471.59995 C268.79996,1473.36727 267.367266,1474.79996 265.599949,1474.79996 C263.832631,1474.79996 262.399937,1473.36727 262.399937,1471.59995 C262.402724,1471.03049 262.559457,1470.47239 262.853539,1469.98474 L261.599935,1468.73114 L258.965525,1471.36555 C258.653124,1471.67785 258.146722,1471.67785 257.834321,1471.36555 L252.399902,1465.93113 L251.131097,1467.19993 L253.365505,1469.43434 C253.677812,1469.74674 253.677812,1470.25314 253.365505,1470.56555 L241.365462,1482.56559 C241.053062,1482.87789 240.546659,1482.87789 240.234258,1482.56559 L232.23423,1474.56556 C231.921923,1474.25316 231.921923,1473.74676 232.23423,1473.43436 L244.234273,1461.43431 C244.546674,1461.12201 245.053076,1461.12201 245.365477,1461.43431 L247.599885,1463.66872 L248.868689,1462.39992 L244.234273,1457.7655 C242.187961,1455.68017 242.203751,1452.33557 244.269662,1450.26966 C246.335573,1448.20375 249.680174,1448.18796 251.7655,1450.23427 L256.399916,1454.86869 L257.668721,1453.59988 L255.434313,1451.36548 C255.122006,1451.05308 255.122006,1450.54667 255.434313,1450.23427 L267.434355,1438.23423 C267.746756,1437.92192 268.253158,1437.92192 268.565559,1438.23423 L276.565588,1446.23426 C276.877894,1446.54666 276.877894,1447.05306 276.565588,1447.36546 L264.565545,1459.36551 C264.253144,1459.67781 263.746742,1459.67781 263.434341,1459.36551 L261.199933,1457.1311 L259.931129,1458.3999 L265.365548,1463.83432 C265.677855,1464.14672 265.677855,1464.65312 265.365548,1464.96553 L262.731139,1467.59993 L263.984743,1468.85354 C264.472392,1468.55946 265.030494,1468.40272 265.599949,1468.39994 C267.367266,1468.39994 268.79996,1469.83263 268.79996,1471.59995 Z M263.999943,1457.6687 L266.868753,1454.79989 L263.999943,1451.93108 L261.131133,1454.79989 L263.999943,1457.6687 Z M267.999957,1453.66868 L270.868768,1450.79987 L267.999957,1447.93106 L265.131147,1450.79987 L267.999957,1453.66868 Z M274.868782,1446.79986 L271.999972,1443.93105 L269.131161,1446.79986 L271.999972,1449.66867 L274.868782,1446.79986 Z M267.999957,1439.93104 L265.131147,1442.79985 L267.999957,1445.66866 L270.868768,1442.79985 L267.999957,1439.93104 Z M263.999943,1443.93105 L261.131133,1446.79986 L263.999943,1449.66867 L266.868753,1446.79986 L263.999943,1443.93105 Z M257.131119,1450.79987 L259.999929,1453.66868 L262.868739,1450.79987 L259.999929,1447.93106 L257.131119,1450.79987 Z M258.799925,1454.73109 L257.53112,1455.99989 L258.799925,1457.2687 L260.068729,1455.99989 L258.799925,1454.73109 Z M245.365477,1456.6343 L245.599878,1456.8687 L250.868696,1451.59988 L250.634295,1451.36548 C249.179351,1449.91053 246.820421,1449.91053 245.365477,1451.36548 C243.910533,1452.82042 243.910533,1455.17935 245.365477,1456.6343 Z M244.799875,1463.13112 L241.931065,1465.99993 L244.799875,1468.86874 L247.668685,1465.99993 L244.799875,1463.13112 Z M240.79986,1467.13113 L237.93105,1469.99994 L240.79986,1472.86875 L243.668671,1469.99994 L240.79986,1467.13113 Z M233.931036,1473.99996 L236.799846,1476.86877 L239.668656,1473.99996 L236.799846,1471.13115 L233.931036,1473.99996 Z M240.79986,1480.86878 L243.668671,1477.99997 L240.79986,1475.13116 L237.93105,1477.99997 L240.79986,1480.86878 Z M244.799875,1476.86877 L247.668685,1473.99996 L244.799875,1471.13115 L241.931065,1473.99996 L244.799875,1476.86877 Z M251.668699,1469.99994 L248.799889,1467.13113 L245.931079,1469.99994 L248.799889,1472.86875 L251.668699,1469.99994 Z M249.999893,1466.06873 L251.268698,1464.79992 L249.999893,1463.53112 L248.731089,1464.79992 L249.999893,1466.06873 Z M258.399923,1469.66874 L263.668742,1464.39992 L251.9999,1452.73108 L246.731082,1457.9999 L258.399923,1469.66874 Z M265.599949,1473.19995 C266.483607,1473.19995 267.199954,1472.48361 267.199954,1471.59995 C267.199954,1470.71629 266.483607,1469.99994 265.599949,1469.99994 C264.71629,1469.99994 263.999943,1470.71629 263.999943,1471.59995 C263.999943,1472.48361 264.71629,1473.19995 265.599949,1473.19995 Z" id="Combined-Shape"></path>
        </g>
    </g>
</svg>