<?xml version="1.0" encoding="UTF-8"?>
<svg width="42px" height="48px" viewBox="0 0 42 48" version="1.1" xmlns="http://www.w3.org/2000/svg" xmlns:xlink="http://www.w3.org/1999/xlink">
    <!-- Generator: sketchtool 54 (76480) - https://sketchapp.com -->
    <title>863325B4-657C-4546-A285-DD556362DEFA</title>
    <desc>Created with sketchtool.</desc>
    <g id="Page-1" stroke="none" stroke-width="1" fill="none" fill-rule="evenodd">
        <g id="Landing-page" transform="translate(-561.000000, -1443.000000)" fill="#8AC34E" fill-rule="nonzero">
            <path d="M561,1478.25 C561,1476.50574 562.186186,1475.03613 563.787611,1474.61865 L563.787611,1459.38135 C562.186186,1458.96387 561,1457.49426 561,1455.75 C561,1453.68237 562.667485,1452 564.716814,1452 C565.808991,1452 566.815144,1452.47388 567.509506,1453.27661 L578.370299,1447.54944 C578.313312,1447.28723 578.283186,1447.0188 578.283186,1446.75 C578.283186,1444.68237 579.950671,1443 582,1443 C584.049329,1443 585.716814,1444.68237 585.716814,1446.75 C585.716814,1447.0188 585.686325,1447.28723 585.629701,1447.54944 L596.490494,1453.27661 C597.184856,1452.47388 598.191009,1452 599.283186,1452 C601.332515,1452 603,1453.68237 603,1455.75 C603,1457.49426 601.813814,1458.96387 600.212389,1459.38135 L600.212389,1462.78125 C600.212389,1463.29907 599.796426,1463.71875 599.283186,1463.71875 C598.769946,1463.71875 598.353982,1463.29907 598.353982,1462.78125 L598.353982,1459.38098 C597.7696,1459.229 597.230953,1458.93567 596.784137,1458.52551 L590.222725,1462.63147 C590.923984,1463.97144 591.292035,1465.46375 591.292035,1467 C591.292035,1468.53625 590.923984,1470.02856 590.222725,1471.36853 L596.784137,1475.47412 C597.23059,1475.06433 597.7696,1474.771 598.353982,1474.61902 L598.353982,1471.21875 C598.353982,1470.70093 598.769946,1470.28125 599.283186,1470.28125 C599.796426,1470.28125 600.212389,1470.70093 600.212389,1471.21875 L600.212389,1474.61865 C601.813814,1475.03613 603,1476.50574 603,1478.25 C603,1480.31763 601.332515,1482 599.283186,1482 C598.191009,1482 597.184856,1481.52612 596.490494,1480.72339 L585.629701,1486.45056 C585.686325,1486.71277 585.716814,1486.9812 585.716814,1487.25 C585.716814,1489.31763 584.049329,1491 582,1491 C579.950671,1491 578.283186,1489.31763 578.283186,1487.25 C578.283186,1486.9812 578.313675,1486.71277 578.370299,1486.45093 L567.509869,1480.72375 C566.81587,1481.52576 565.809717,1482 564.716814,1482 C562.667485,1482 561,1480.31763 561,1478.25 Z M564.716814,1480.125 C565.755635,1480.125 566.575221,1479.27612 566.575221,1478.25 C566.575221,1477.21875 565.745835,1476.375 564.716814,1476.375 C563.692149,1476.375 562.858407,1477.21619 562.858407,1478.25 C562.858407,1479.28381 563.692149,1480.125 564.716814,1480.125 Z M567.215863,1458.52551 C566.76941,1458.93567 566.2304,1459.229 565.646018,1459.38098 L565.646018,1474.61902 C566.2304,1474.771 566.769047,1475.06433 567.215863,1475.47449 L573.777275,1471.36853 C573.076016,1470.02893 572.707965,1468.53625 572.707965,1467 C572.707965,1465.46375 573.076016,1463.97144 573.777275,1462.63147 L567.215863,1458.52551 Z M581.070796,1450.38062 C580.346308,1450.19385 579.698769,1449.79175 579.206945,1449.22339 L568.346515,1454.95056 C568.403139,1455.21277 568.433628,1455.4812 568.433628,1455.75 C568.433628,1456.16455 568.364301,1456.57068 568.233995,1456.9563 L574.80448,1461.06775 C576.365615,1459.13855 578.616392,1457.91943 581.070796,1457.67224 L581.070796,1450.38062 Z M584.793055,1449.22375 C584.301957,1449.79138 583.654055,1450.19385 582.929204,1450.38062 L582.929204,1457.67224 C585.383245,1457.91943 587.634022,1459.13855 589.19552,1461.06775 L595.766005,1456.9563 C595.635699,1456.57068 595.566372,1456.16455 595.566372,1455.75 C595.566372,1455.4812 595.596498,1455.21277 595.653485,1454.95056 L584.793055,1449.22375 Z M595.653485,1479.04944 C595.596861,1478.7876 595.566372,1478.51917 595.566372,1478.25 C595.566372,1477.83545 595.635699,1477.42932 595.766005,1477.0437 L589.19552,1472.93225 C587.695001,1474.78711 585.47072,1476.07251 582.929204,1476.32739 L582.929204,1483.61938 C583.653692,1483.80615 584.301231,1484.20825 584.792692,1484.77661 L595.653485,1479.04944 Z M579.206945,1484.77625 C579.698406,1484.20862 580.345945,1483.80615 581.070796,1483.61938 L581.070796,1476.32739 C578.528554,1476.07251 576.304636,1474.78638 574.80448,1472.93225 L568.233995,1477.0437 C568.364301,1477.42932 568.433628,1477.83545 568.433628,1478.25 C568.433628,1478.5188 568.403139,1478.78723 568.346515,1479.04907 L579.206945,1484.77625 Z M582,1474.5 C583.270758,1474.5 584.503405,1474.17737 585.599938,1473.56287 C585.187604,1471.92554 583.727738,1470.75 582,1470.75 C580.272262,1470.75 578.812396,1471.92554 578.400062,1473.56287 C579.496958,1474.17737 580.729605,1474.5 582,1474.5 Z M587.171236,1472.38623 C588.645983,1470.94556 589.433628,1469.00903 589.433628,1467 C589.433628,1462.85596 586.104829,1459.5 582,1459.5 C577.893356,1459.5 574.566372,1462.85706 574.566372,1467 C574.566372,1469.10864 575.425159,1471.01514 576.828764,1472.38623 C577.656699,1470.30615 579.665739,1468.875 582,1468.875 C584.334261,1468.875 586.343301,1470.30615 587.171236,1472.38623 Z M582,1489.125 C583.024665,1489.125 583.858407,1488.28381 583.858407,1487.25 C583.858407,1486.24585 583.058784,1485.375 582,1485.375 C580.962994,1485.375 580.141593,1486.22241 580.141593,1487.25 C580.141593,1488.28381 580.975335,1489.125 582,1489.125 Z M599.283186,1476.375 C598.252714,1476.375 597.424779,1477.21948 597.424779,1478.25 C597.424779,1479.26367 598.233476,1480.125 599.283186,1480.125 C600.307851,1480.125 601.141593,1479.28381 601.141593,1478.25 C601.141593,1477.21619 600.307851,1476.375 599.283186,1476.375 Z M599.283186,1453.875 C598.224402,1453.875 597.424779,1454.74548 597.424779,1455.75 C597.424779,1456.78125 598.25344,1457.625 599.283186,1457.625 C600.307851,1457.625 601.141593,1456.78381 601.141593,1455.75 C601.141593,1454.71619 600.307851,1453.875 599.283186,1453.875 Z M582,1444.875 C580.975335,1444.875 580.141593,1445.71619 580.141593,1446.75 C580.141593,1447.75415 580.941216,1448.625 582,1448.625 C583.037006,1448.625 583.858407,1447.77759 583.858407,1446.75 C583.858407,1445.71619 583.024665,1444.875 582,1444.875 Z M562.858407,1455.75 C562.858407,1456.78381 563.692149,1457.625 564.716814,1457.625 C565.747286,1457.625 566.575221,1456.78052 566.575221,1455.75 C566.575221,1454.74585 565.775598,1453.875 564.716814,1453.875 C563.692149,1453.875 562.858407,1454.71619 562.858407,1455.75 Z M585.716814,1465.125 C585.716814,1467.19263 584.049329,1468.875 582,1468.875 C579.950671,1468.875 578.283186,1467.19263 578.283186,1465.125 C578.283186,1463.05737 579.950671,1461.375 582,1461.375 C584.049329,1461.375 585.716814,1463.05737 585.716814,1465.125 Z M582,1467 C583.024665,1467 583.858407,1466.15881 583.858407,1465.125 C583.858407,1464.09119 583.024665,1463.25 582,1463.25 C580.975335,1463.25 580.141593,1464.09119 580.141593,1465.125 C580.141593,1466.15881 580.975335,1467 582,1467 Z M600.212389,1467 C600.212389,1467.51782 599.796426,1467.9375 599.283186,1467.9375 C598.769946,1467.9375 598.353982,1467.51782 598.353982,1467 C598.353982,1466.48218 598.769946,1466.0625 599.283186,1466.0625 C599.796426,1466.0625 600.212389,1466.48218 600.212389,1467 Z" id="Combined-Shape"></path>
        </g>
    </g>
</svg>