<?xml version="1.0" encoding="UTF-8"?>
<svg width="47px" height="50px" viewBox="0 0 47 50" version="1.1" xmlns="http://www.w3.org/2000/svg" xmlns:xlink="http://www.w3.org/1999/xlink">
    <!-- Generator: sketchtool 54 (76480) - https://sketchapp.com -->
    <title>8A4A62F3-7386-4E45-A2D1-247FBBFEFB33</title>
    <desc>Created with sketchtool.</desc>
    <g id="Page-1" stroke="none" stroke-width="1" fill="none" fill-rule="evenodd">
        <g id="Landing-page" transform="translate(-905.000000, -1442.000000)" fill="#8AC34E" fill-rule="nonzero" stroke="#8AC34E" stroke-width="0.5">
            <path d="M946.744296,1460.03883 C949.267579,1460.79929 950.996985,1463.13251 950.999996,1465.78068 C951.003793,1469.09534 948.334145,1471.78536 945.037146,1471.78918 L911.98337,1471.78918 C909.978777,1471.79708 908.104578,1470.7913 906.995585,1469.11245 C905.1748,1466.35609 905.921547,1462.63791 908.663329,1460.80758 C908.495887,1460.09661 908.411315,1459.36853 908.411315,1458.63795 C908.411577,1453.43927 912.603913,1449.22531 917.775112,1449.22557 L918.162624,1449.22557 C919.184951,1446.36498 921.519845,1444.17771 924.430379,1443.35408 C929.402453,1441.94715 934.567629,1444.8588 935.967257,1449.85731 C936.440651,1449.78321 936.918888,1449.74596 937.397911,1449.7457 C942.551698,1449.74333 946.731466,1453.94163 946.733823,1459.12281 C946.733823,1459.38604 946.733823,1459.67032 946.733823,1459.9546 L946.744296,1460.03883 Z M945.037146,1470.09401 C947.214941,1470.10678 949.074215,1468.51532 949.4091,1466.35175 C949.782604,1463.93851 948.139341,1461.6778 945.738858,1461.30231 C945.735061,1461.30179 945.731396,1461.30113 945.727599,1461.30047 C945.300288,1461.22519 945.014628,1460.81587 945.089513,1460.38629 C945.268213,1459.32326 945.225535,1458.23456 944.964226,1457.18903 C943.921084,1453.01574 939.710026,1450.48273 935.558798,1451.53142 C935.547277,1451.53418 935.535494,1451.53668 935.523843,1451.53892 C935.097579,1451.62012 934.686502,1451.33874 934.605726,1450.91021 C934.08913,1447.91787 931.896542,1445.49647 928.981426,1444.69916 C924.834518,1443.56506 920.558133,1446.02515 919.429895,1450.19424 C919.321496,1450.56064 918.97051,1450.79873 918.59203,1450.7628 C918.305978,1450.74674 918.019271,1450.74674 917.733219,1450.7628 C916.966572,1450.7628 916.204115,1450.87651 915.470459,1451.10025 C911.352353,1452.35623 909.026753,1456.73063 910.27622,1460.87062 C910.384487,1461.23295 910.22202,1461.62147 909.888707,1461.79717 C908.408173,1462.56803 907.490056,1464.11566 907.51912,1465.79161 C907.561406,1468.22775 909.560107,1470.16811 911.98337,1470.1256 L945.037146,1470.1256 L945.037146,1470.09401 Z M935.936622,1474.69794 C936.172796,1475.06369 936.069241,1475.55276 935.705424,1475.79046 L935.768264,1475.79046 C931.873631,1479.45717 925.817176,1479.45717 921.922544,1475.79046 C921.8491,1475.74255 921.784296,1475.68267 921.730489,1475.61331 C921.463813,1475.26914 921.525213,1474.77296 921.867428,1474.505 C922.209774,1474.2369 922.703329,1474.29863 922.969875,1474.64267 C926.259019,1477.7345 931.368949,1477.7345 934.658093,1474.64267 C934.711899,1474.57331 934.776834,1474.51342 934.850147,1474.46552 C935.213964,1474.22809 935.700449,1474.33206 935.936622,1474.69794 Z M939.129281,1479.42006 C939.471627,1479.68802 939.532896,1480.1842 939.26622,1480.52837 C933.348143,1486.09149 924.153883,1486.09149 918.235807,1480.52837 C917.929462,1480.22 917.929462,1479.72066 918.235807,1479.41229 C918.242483,1479.40492 918.24916,1479.39782 918.256099,1479.39071 C918.560087,1479.07958 919.057438,1479.0751 919.366924,1479.38071 C924.674538,1484.36105 932.911275,1484.36105 938.218888,1479.38071 C938.499704,1479.19737 938.865223,1479.2133 939.129281,1479.42006 Z M943.508828,1484.1635 C943.745001,1484.52925 943.641446,1485.01832 943.277629,1485.25601 C935.135807,1492.91466 922.481688,1492.91466 914.339865,1485.25601 C914.266421,1485.20811 914.201617,1485.14822 914.147811,1485.07886 C913.881134,1484.7347 913.942534,1484.23852 914.284749,1483.97055 C914.627096,1483.70246 915.120651,1483.76419 915.387196,1484.10822 C922.924971,1491.19844 934.640157,1491.19844 942.177932,1484.10822 L942.230298,1484.10822 C942.284105,1484.03886 942.349039,1483.97898 942.422352,1483.93107 C942.786169,1483.69364 943.272655,1483.79762 943.508828,1484.1635 Z" id="Combined-Shape"></path>
        </g>
    </g>
</svg>