<?xml version="1.0" encoding="UTF-8"?>
<svg width="28px" height="48px" viewBox="0 0 28 48" version="1.1" xmlns="http://www.w3.org/2000/svg" xmlns:xlink="http://www.w3.org/1999/xlink">
    <!-- Generator: sketchtool 54 (76480) - https://sketchapp.com -->
    <title>4C3E5586-65BF-43AE-9F41-7B5A7A29E2A7</title>
    <desc>Created with sketchtool.</desc>
    <g id="Page-1" stroke="none" stroke-width="1" fill="none" fill-rule="evenodd">
        <g id="Landing-page" transform="translate(-561.000000, -1834.000000)" fill="#8AC34E" fill-rule="nonzero">
            <path d="M585.056338,1839.88773 C587.225352,1839.88773 589,1841.68399 589,1843.87942 L589,1878.00832 C589,1880.20374 587.225352,1882 585.056338,1882 L564.943662,1882 C562.774648,1882 561,1880.20374 561,1878.00832 L561,1843.87942 C561,1841.68399 562.774648,1839.88773 564.943662,1839.88773 L568.492958,1839.88773 L568.492958,1837.99168 C568.492958,1835.79626 570.267606,1834 572.43662,1834 L577.56338,1834 C579.732394,1834 581.507042,1835.79626 581.507042,1837.99168 L581.507042,1839.88773 L585.056338,1839.88773 Z M570.464789,1837.99168 L570.464789,1839.88773 L579.535211,1839.88773 L579.535211,1837.99168 C579.535211,1836.89397 578.647887,1835.99584 577.56338,1835.99584 L572.43662,1835.99584 C571.352113,1835.99584 570.464789,1836.89397 570.464789,1837.99168 Z M587.028169,1877.90852 L587.028169,1843.87942 C587.028169,1842.7817 586.140845,1841.88358 585.056338,1841.88358 L580.521127,1841.88358 L569.478873,1841.88358 L564.943662,1841.88358 C563.859155,1841.88358 562.971831,1842.7817 562.971831,1843.87942 L562.971831,1877.90852 C562.971831,1879.00624 563.859155,1879.90437 564.943662,1879.90437 L585.056338,1879.90437 C586.140845,1879.90437 587.028169,1879.00624 587.028169,1877.90852 Z M582.591549,1859.04782 C582.985915,1859.04782 583.380282,1859.2474 583.478873,1859.64657 C583.676056,1860.04574 583.577465,1860.44491 583.28169,1860.74428 L571.450704,1873.01871 C571.253521,1873.2183 571.056338,1873.31809 570.760563,1873.31809 C570.56338,1873.31809 570.464789,1873.31809 570.267606,1873.2183 C569.873239,1873.01871 569.676056,1872.51975 569.774648,1872.12058 L571.943662,1862.74012 L567.309859,1862.74012 C566.915493,1862.74012 566.619718,1862.54054 566.422535,1862.14137 C566.225352,1861.7422 566.323944,1861.34304 566.619718,1861.04366 L578.450704,1848.76923 C578.746479,1848.46985 579.239437,1848.37006 579.633803,1848.56965 C580.028169,1848.76923 580.225352,1849.26819 580.126761,1849.66736 L577.957746,1859.04782 L582.591549,1859.04782 Z M572.633803,1869.02703 L580.323944,1861.04366 L576.774648,1861.04366 C576.478873,1861.04366 576.183099,1860.84407 575.985915,1860.64449 C575.788732,1860.44491 575.690141,1860.14553 575.788732,1859.84615 L577.464789,1852.76091 L569.774648,1860.74428 L573.323944,1860.74428 C573.619718,1860.74428 573.915493,1860.94387 574.112676,1861.14345 C574.309859,1861.34304 574.408451,1861.64241 574.309859,1861.94179 L572.633803,1869.02703 Z" id="Combined-Shape"></path>
        </g>
    </g>
</svg>