<?xml version="1.0" encoding="UTF-8"?>
<svg width="21px" height="34px" viewBox="0 0 21 34" version="1.1" xmlns="http://www.w3.org/2000/svg" xmlns:xlink="http://www.w3.org/1999/xlink">
    <!-- Generator: sketchtool 54 (76480) - https://sketchapp.com -->
    <title>DC2EC0C8-5FFB-4BB0-B708-6F9C900BB3DB</title>
    <desc>Created with sketchtool.</desc>
    <g id="Page-1" stroke="none" stroke-width="1" fill="none" fill-rule="evenodd">
        <g id="Landing-page" transform="translate(-592.000000, -1849.000000)" fill="#8AC34E" fill-rule="nonzero" stroke="#8AC34E" stroke-width="0.4">
            <path d="M609.323944,1853.92516 C610.795775,1853.92516 612,1855.12266 612,1856.58628 L612,1879.33888 C612,1880.80249 610.795775,1882 609.323944,1882 L595.676056,1882 C594.204225,1882 593,1880.80249 593,1879.33888 L593,1856.58628 C593,1855.12266 594.204225,1853.92516 595.676056,1853.92516 L598.084507,1853.92516 L598.084507,1852.66112 C598.084507,1851.19751 599.288732,1850 600.760563,1850 L604.239437,1850 C605.711268,1850 606.915493,1851.19751 606.915493,1852.66112 L606.915493,1853.92516 L609.323944,1853.92516 Z M599.422535,1852.66112 L599.422535,1853.92516 L605.577465,1853.92516 L605.577465,1852.66112 C605.577465,1851.92931 604.975352,1851.33056 604.239437,1851.33056 L600.760563,1851.33056 C600.024648,1851.33056 599.422535,1851.92931 599.422535,1852.66112 Z M610.661972,1879.27235 L610.661972,1856.58628 C610.661972,1855.85447 610.059859,1855.25572 609.323944,1855.25572 L606.246479,1855.25572 L598.753521,1855.25572 L595.676056,1855.25572 C594.940141,1855.25572 594.338028,1855.85447 594.338028,1856.58628 L594.338028,1879.27235 C594.338028,1880.00416 594.940141,1880.60291 595.676056,1880.60291 L609.323944,1880.60291 C610.059859,1880.60291 610.661972,1880.00416 610.661972,1879.27235 Z M607.706433,1867.06453 C607.975152,1867.06453 608.243871,1867.1967 608.311051,1867.46103 C608.44541,1867.72535 608.37823,1867.98968 608.176691,1868.18793 L600.115118,1876.31604 C599.980758,1876.4482 599.846399,1876.51429 599.64486,1876.51429 C599.5105,1876.51429 599.44332,1876.51429 599.308961,1876.4482 C599.040242,1876.31604 598.905882,1875.98563 598.973062,1875.7213 L600.451017,1869.50957 L597.293567,1869.50957 C597.024848,1869.50957 596.823309,1869.37741 596.688949,1869.11308 C596.55459,1868.84875 596.62177,1868.58442 596.823309,1868.38618 L604.884882,1860.25807 C605.086421,1860.05982 605.42232,1859.99374 605.691039,1860.1259 C605.959758,1860.25807 606.094118,1860.58848 606.026938,1860.85281 L604.548983,1867.06453 L607.706433,1867.06453 Z M600.921275,1873.67275 L606.161298,1868.38618 L603.742826,1868.38618 C603.541287,1868.38618 603.339747,1868.25401 603.205388,1868.12185 C603.071028,1867.98968 603.003848,1867.79144 603.071028,1867.59319 L604.213084,1862.90135 L598.973062,1868.18793 L601.391534,1868.18793 C601.593073,1868.18793 601.794612,1868.32009 601.928972,1868.45226 C602.063331,1868.58442 602.130511,1868.78267 602.063331,1868.98092 L600.921275,1873.67275 Z" id="Combined-Shape-Copy"></path>
        </g>
    </g>
</svg>