<?xml version="1.0" encoding="UTF-8"?>
<svg width="48px" height="49px" viewBox="0 0 48 49" version="1.1" xmlns="http://www.w3.org/2000/svg" xmlns:xlink="http://www.w3.org/1999/xlink">
    <!-- Generator: sketchtool 54 (76480) - https://sketchapp.com -->
    <title>7164BC9C-BE53-400B-A9C0-D9526B7FEE07</title>
    <desc>Created with sketchtool.</desc>
    <g id="Page-1" stroke="none" stroke-width="1" fill="none" fill-rule="evenodd">
        <g id="Landing-page" transform="translate(-220.000000, -1114.000000)" fill="#8AC34E" fill-rule="nonzero">
            <path d="M267.094662,1135.77772 L260.68682,1135.77772 L260.68682,1141.22228 L267.094662,1141.22228 C267.594749,1141.22228 268,1141.62831 268,1142.12936 C268,1142.63093 267.594749,1143.03696 267.094662,1143.03696 L260.68682,1143.03696 L260.68682,1148.48152 L267.094662,1148.48152 C267.594749,1148.48152 268,1148.88755 268,1149.3886 C268,1149.89017 267.594749,1150.2962 267.094662,1150.2962 L260.68682,1150.2962 L260.68682,1154.83316 C260.68682,1155.33421 260.281569,1155.74076 259.781482,1155.74076 L256.332182,1155.74076 L256.332182,1161.69727 C256.332182,1162.19832 255.92693,1162.60487 255.426326,1162.60487 C254.92624,1162.60487 254.520988,1162.19832 254.520988,1161.69727 L254.520988,1155.74076 L249.086889,1155.74076 L249.086889,1161.69727 C249.086889,1162.19832 248.681638,1162.60487 248.181033,1162.60487 C247.680947,1162.60487 247.275695,1162.19832 247.275695,1161.69727 L247.275695,1155.74076 L241.841596,1155.74076 L241.841596,1161.69727 C241.841596,1162.19832 241.435827,1162.60487 240.93574,1162.60487 C240.435654,1162.60487 240.030403,1162.19832 240.030403,1161.69727 L240.030403,1155.74076 L234.490586,1155.74076 L234.490586,1162.0924 C234.490586,1162.59345 234.084816,1163 233.58473,1163 C233.084643,1163 232.679392,1162.59345 232.679392,1162.0924 L232.679392,1155.74076 L228.218518,1155.74076 C227.718432,1155.74076 227.31318,1155.33421 227.31318,1154.83316 L227.31318,1150.2962 L220.905856,1150.2962 C220.405251,1150.2962 220,1149.89017 220,1149.3886 C220,1148.88755 220.405251,1148.48152 220.905856,1148.48152 L227.31318,1148.48152 L227.31318,1143.03696 L220.905856,1143.03696 C220.405251,1143.03696 220,1142.63093 220,1142.12936 C220,1141.62831 220.405251,1141.22228 220.905856,1141.22228 L227.31318,1141.22228 L227.31318,1135.77772 L220.905856,1135.77772 C220.405251,1135.77772 220,1135.37169 220,1134.87012 C220,1134.36907 220.405251,1133.96304 220.905856,1133.96304 L227.31318,1133.96304 L227.31318,1128.51848 L220.905856,1128.51848 C220.405251,1128.51848 220,1128.11245 220,1127.61088 C220,1127.10983 220.405251,1126.7038 220.905856,1126.7038 L227.31318,1126.7038 L227.31318,1123.0625 C227.31318,1122.56145 227.718432,1122.1549 228.218518,1122.1549 L232.679392,1122.1549 L232.679392,1115.17708 C232.679392,1114.67603 233.084643,1114.26948 233.58473,1114.26948 C234.084816,1114.26948 234.490586,1114.67603 234.490586,1115.17708 L234.490586,1122.1549 L240.030403,1122.1549 L240.030403,1114.9076 C240.030403,1114.40603 240.435654,1114 240.93574,1114 C241.435827,1114 241.841596,1114.40603 241.841596,1114.9076 L241.841596,1122.1549 L247.275695,1122.1549 L247.275695,1114.9076 C247.275695,1114.40603 247.680947,1114 248.181033,1114 C248.681638,1114 249.086889,1114.40603 249.086889,1114.9076 L249.086889,1122.1549 L254.520988,1122.1549 L254.520988,1114.9076 C254.520988,1114.40603 254.92624,1114 255.426326,1114 C255.92693,1114 256.332182,1114.40603 256.332182,1114.9076 L256.332182,1122.1549 L259.781482,1122.1549 C260.281569,1122.1549 260.68682,1122.56145 260.68682,1123.0625 L260.68682,1126.7038 L267.094662,1126.7038 C267.594749,1126.7038 268,1127.10983 268,1127.61088 C268,1128.11245 267.594749,1128.51848 267.094662,1128.51848 L260.68682,1128.51848 L260.68682,1133.96304 L267.094662,1133.96304 C267.594749,1133.96304 268,1134.36907 268,1134.87012 C268,1135.37169 267.594749,1135.77772 267.094662,1135.77772 Z M258.875626,1153.92608 L258.875626,1123.9701 L233.641734,1123.9701 C233.622042,1123.97114 233.604941,1123.98152 233.58473,1123.98152 C233.564519,1123.98152 233.547936,1123.97114 233.528243,1123.9701 L229.124374,1123.9701 L229.124374,1153.92608 L258.875626,1153.92608 Z M233.58473,1127.61088 L248.981171,1127.61088 C249.221109,1127.61088 249.451719,1127.70694 249.621696,1127.87672 L255.055277,1133.32128 C255.225255,1133.49159 255.320608,1133.72212 255.320608,1133.96304 L255.320608,1149.3886 C255.320608,1149.89017 254.915357,1150.2962 254.41527,1150.2962 L233.58473,1150.2962 C233.084643,1150.2962 232.679392,1149.89017 232.679392,1149.3886 L232.679392,1128.51848 C232.679392,1128.01743 233.084643,1127.61088 233.58473,1127.61088 Z M253.509414,1134.33844 L248.605977,1129.42608 L234.490586,1129.42608 L234.490586,1148.48152 L253.509414,1148.48152 L253.509414,1134.33844 Z M238.112973,1136.68532 C237.612887,1136.68532 237.207635,1136.27877 237.207635,1135.77772 L237.207635,1133.05544 C237.207635,1132.55439 237.612887,1132.14836 238.112973,1132.14836 L240.830022,1132.14836 C241.330109,1132.14836 241.735878,1132.55439 241.735878,1133.05544 C241.735878,1133.55649 241.330109,1133.96304 240.830022,1133.96304 L239.018829,1133.96304 L239.018829,1135.77772 C239.018829,1136.27877 238.613578,1136.68532 238.112973,1136.68532 Z M241.079288,1143.94456 C241.579375,1143.94456 241.985144,1144.35059 241.985144,1144.85164 C241.985144,1145.35269 241.579375,1145.75924 241.079288,1145.75924 L238.112973,1145.75924 C237.612887,1145.75924 237.207635,1145.35269 237.207635,1144.85164 L237.207635,1141.90298 C237.207635,1141.40141 237.612887,1140.99538 238.112973,1140.99538 C238.613578,1140.99538 239.018829,1141.40141 239.018829,1141.90298 L239.018829,1143.94456 L241.079288,1143.94456 Z M246.275523,1144.86358 C246.275523,1144.36201 246.681292,1143.95598 247.181379,1143.95598 L248.981171,1143.95598 L248.981171,1141.89104 C248.981171,1141.38999 249.386423,1140.98396 249.887027,1140.98396 C250.387114,1140.98396 250.792365,1141.38999 250.792365,1141.89104 L250.792365,1144.86358 C250.792365,1145.36463 250.387114,1145.77066 249.887027,1145.77066 L247.181379,1145.77066 C246.681292,1145.77066 246.275523,1145.36463 246.275523,1144.86358 Z" id="Combined-Shape"></path>
        </g>
    </g>
</svg>