<?xml version="1.0" encoding="UTF-8"?>
<svg width="24px" height="24px" viewBox="0 0 24 24" version="1.1" xmlns="http://www.w3.org/2000/svg" xmlns:xlink="http://www.w3.org/1999/xlink">
    <!-- Generator: sketchtool 54 (76480) - https://sketchapp.com -->
    <title>9586FDC0-FBC9-43AD-A5F9-FED8E2443A36</title>
    <desc>Created with sketchtool.</desc>
    <g id="Page-1" stroke="none" stroke-width="1" fill="none" fill-rule="evenodd">
        <g id="Landing-page" transform="translate(-220.000000, -2681.000000)">
            <g id="Group" transform="translate(220.000000, 2336.000000)">
                <g id="Group-4" transform="translate(0.000000, 345.000000)">
                    <circle id="Oval" fill="#00974C" cx="12" cy="12" r="12"></circle>
                    <path d="M11.6212774,14.6923043 C11.258572,15.0550097 10.670051,15.0550097 10.3075206,14.6923043 L8.27202906,12.6568128 C7.90932365,12.2942824 7.90932365,11.7057614 8.27202906,11.343231 C8.63455942,10.9805256 9.22308046,10.9805256 9.58578587,11.343231 L10.7985383,12.5558084 C10.8900899,12.647185 11.0387081,12.647185 11.1304348,12.5558084 L14.4142141,9.27202906 C14.7767445,8.90932365 15.3652655,8.90932365 15.7279709,9.27202906 C15.9021466,9.44620468 16,9.68252336 16,9.92881994 C16,10.1751165 15.9021466,10.4114352 15.7279709,10.5856108 L11.6212774,14.6923043 Z" id="Path" fill="#FFFFFF" fill-rule="nonzero"></path>
                </g>
            </g>
        </g>
    </g>
</svg>