<?xml version="1.0" encoding="UTF-8"?>
<svg width="151px" height="30px" viewBox="0 0 151 30" version="1.1" xmlns="http://www.w3.org/2000/svg" xmlns:xlink="http://www.w3.org/1999/xlink">
    <!-- Generator: sketchtool 54 (76480) - https://sketchapp.com -->
    <title>CB806210-38B9-44CF-89EE-536C87776155</title>
    <desc>Created with sketchtool.</desc>
    <g id="Page-1" stroke="none" stroke-width="1" fill="none" fill-rule="evenodd">
        <g id="Landing-page" transform="translate(-220.000000, -29.000000)">
            <g id="Group-55" transform="translate(220.000000, 29.000000)">
                <path d="M16.4265536,27.2971333 L23.5707411,27.2971333 C25.6867349,27.2971333 27.8028617,27.2958 29.9189885,27.3002 C30.0600193,27.3004667 30.1258159,27.2595333 30.1647622,27.1208667 C30.2802719,26.7106 30.410536,26.3044667 30.5346857,25.8967333 C31.0922957,24.0643333 31.6492411,22.2316667 32.2077816,20.3995333 C32.7842666,18.5082 33.3628784,16.6176667 33.9390976,14.7263333 C34.6217878,12.4860667 35.3031487,10.2455333 35.9850413,8.00513333 C36.514073,6.267 37.0436364,4.529 37.5714717,2.7906 C37.6437816,2.55246667 37.6395281,2.55073333 37.3905642,2.55073333 C28.4202869,2.5506 19.4500096,2.5514 10.4797323,2.5454 C10.2974955,2.54526667 10.2362182,2.6114 10.190227,2.7682 C9.98645678,3.4618 9.77444533,4.15313333 9.56336435,4.8446 C8.83455009,7.23246667 8.10360907,9.61953333 7.37612403,12.0078 C6.5242235,14.8036667 5.67577896,17.6006 4.8242772,20.3966 C4.14756857,22.619 3.46846734,24.8406 2.79069533,27.0626 C2.71944886,27.2962 2.72051224,27.2968667 2.97107121,27.2968667 C7.45627632,27.297 11.9413485,27.297 16.4265536,27.2971333 M15.7867974,29.3374 C10.6349858,29.3374 5.48304129,29.3374 0.331229665,29.3374 C0.275668046,29.3374 0.219707658,29.3332667 0.164677729,29.3379333 C0.0173995599,29.3506 -0.0315159331,29.3156667 0.019659243,29.1507333 C0.362732306,28.0476667 0.695570335,26.9412667 1.03186435,25.8359333 C1.66311347,23.7611333 2.29369798,21.6860667 2.92601048,19.6116667 C3.52588988,17.6435333 4.12856065,15.6762 4.72844005,13.7080667 C5.3121029,11.7931333 5.89270854,9.87726667 6.47623847,7.96206667 C7.10270238,5.90513333 7.73089428,3.84846667 8.35842157,1.79166667 C8.46675343,1.43713333 8.58824463,1.08606667 8.67929657,0.727 C8.72515484,0.546333333 8.80637051,0.499133333 8.9850184,0.4994 C15.1609982,0.503933333 21.3371108,0.503133333 27.5132235,0.503133333 C31.702543,0.503266667 35.8918626,0.503266667 40.0813151,0.503133333 C40.4534982,0.503133333 40.4079057,0.493933333 40.3139295,0.801933333 C39.4846258,3.52193333 38.6547904,6.24166667 37.8262842,8.96193333 C36.9763776,11.7527333 36.1283318,14.5440667 35.2782922,17.3347333 C34.5472182,19.735 33.8142834,22.1347333 33.0824119,24.5347333 C32.6118661,26.0778 32.1389277,27.6200667 31.6752939,29.1651333 C31.6315624,29.311 31.5631073,29.3407333 31.4275263,29.3402 C30.1997209,29.3359333 28.9719154,29.3375333 27.7441099,29.3375333 C23.7582948,29.3375333 19.7726126,29.3375333 15.7867974,29.3374" id="Fill-1" fill="#8AC34E"></path>
                <path d="M107.865375,6.59909333 C107.865375,7.34202667 107.863647,8.08509333 107.866438,8.82802667 C107.867235,9.05162667 107.829353,9.31642667 108.177211,9.30949333 C109.241654,9.28829333 110.316067,9.43242667 111.358047,9.06442667 C112.465026,8.67349333 113.201284,7.77789333 113.252326,6.71069333 C113.319186,5.31096 112.844121,4.43229333 111.711355,3.96389333 C110.588957,3.49962667 109.416315,3.58616 108.245533,3.72309333 C107.92386,3.76069333 107.860191,3.96536 107.862849,4.24629333 C107.870559,5.03056 107.865507,5.81482667 107.865375,6.59909333 M103.279547,10.6390933 C103.279148,7.52309333 103.292574,4.40696 103.266521,1.29109333 C103.261868,0.741626667 103.425762,0.521893333 103.970478,0.467893333 C106.921757,0.175093333 109.878088,-0.09224 112.823651,0.43056 C114.968888,0.81136 116.762412,1.75376 117.558352,3.98522667 C118.505956,6.64176 117.453476,9.43749333 114.966495,10.7448267 C114.429754,11.02696 114.487309,11.1758933 114.818021,11.61296 C115.783969,12.8896267 116.313931,14.4010933 116.892809,15.8756267 C117.434867,17.2562933 117.90847,18.66376 118.433248,20.0514933 C118.606313,20.5086933 118.587704,20.72176 118.007364,20.70496 C116.815182,20.6706933 115.621139,20.6826933 114.428159,20.6992267 C114.041886,20.70456 113.84011,20.56536 113.694161,20.1986933 C112.962821,18.3614933 112.248362,16.5154933 111.266463,14.7910933 C111.00115,14.3248267 110.681604,13.8968267 110.370167,13.4608267 C109.819868,12.69016 109.052772,12.62936 108.224797,12.6978933 C107.812206,12.73216 107.895548,13.0552267 107.895016,13.3060267 C107.889434,15.45216 107.891693,17.5984267 107.891826,19.74456 C107.891826,20.6924267 107.891826,20.69296 106.974262,20.69376 C106.007383,20.6944267 105.040505,20.69456 104.073626,20.69376 C103.281674,20.6932267 103.280212,20.69256 103.280079,19.8634933 C103.279547,16.7886933 103.279813,13.7138933 103.279547,10.6390933" id="Fill-3" fill="#FFFFFF"></path>
                <path d="M74.2457164,6.49909333 C74.2457164,7.03549333 74.2457164,7.57202667 74.2457164,8.10842667 C74.2455835,9.32336 74.2457164,9.31136 75.4694012,9.32682667 C76.4441222,9.33896 77.4117982,9.31989333 78.2800482,8.80469333 C79.3040835,8.19709333 79.7443229,7.26682667 79.6256231,6.09376 C79.5103792,4.95642667 78.8936187,4.20856 77.7930201,3.85469333 C76.742932,3.51696 75.682609,3.61869333 74.6167032,3.70936 C74.2808079,3.73789333 74.2368106,3.92616 74.2415958,4.20896 C74.2543563,4.97216 74.2459822,5.73562667 74.2457164,6.49909333 M80.7142586,11.0744267 C81.7212798,12.1200267 82.2306389,13.3910933 82.7361433,14.6480267 C83.4734646,16.4812267 84.1324945,18.3460267 84.8375157,20.19256 C84.9820025,20.5710933 84.9138132,20.6914933 84.4905879,20.6836267 C83.256535,20.6604267 82.0215518,20.66176 80.7874989,20.6848267 C80.3992322,20.6920267 80.203969,20.56736 80.0608114,20.1974933 C79.4739585,18.6810933 78.870756,17.1700267 78.1334347,15.7184267 C77.7223053,14.9092267 77.2557472,14.1382933 76.7091697,13.4084267 C76.1181961,12.6190933 75.3133502,12.6346933 74.4821856,12.6894933 C74.1149206,12.71376 74.2535588,13.0292267 74.2527613,13.2218933 C74.242925,15.47136 74.2276389,17.7212267 74.2592745,19.9702933 C74.2672498,20.5332267 74.1239593,20.71416 73.5476072,20.6898933 C72.4180315,20.6424267 71.2848669,20.6646933 70.1535632,20.68216 C69.7865641,20.68776 69.6548379,20.5806933 69.6553695,20.1928267 C69.6656046,13.81576 69.6628132,7.43882667 69.6604206,1.06176 C69.6602877,0.79936 69.6590914,0.571226667 70.0125324,0.532426667 C73.2265993,0.180026667 76.446116,-0.141706667 79.6504796,0.54736 C81.87866,1.02642667 83.5423185,2.22402667 84.0738757,4.58509333 C84.6857181,7.30216 83.5310201,9.66202667 81.0421785,10.8990933 C80.9519241,10.9440267 80.8643282,10.9940267 80.7142586,11.0744267" id="Fill-6" fill="#FFFFFF"></path>
                <path d="M127.542655,20.6936267 C125.607968,20.69376 123.673147,20.6802933 121.738593,20.70336 C121.267249,20.70896 121.083816,20.58256 121.084747,20.0856267 C121.096178,13.6856267 121.094982,7.28549333 121.085145,0.885493333 C121.084481,0.429493333 121.237076,0.287093333 121.695924,0.28896 C125.482887,0.305226667 129.269983,0.30416 133.056946,0.289493333 C133.508484,0.28776 133.680353,0.41776 133.664801,0.885626667 C133.635425,1.77242667 133.6329,2.66176 133.666396,3.54829333 C133.683942,4.01362667 133.532145,4.14882667 133.0721,4.14442667 C130.849502,4.12336 128.626373,4.14949333 126.403908,4.12402667 C125.894416,4.11829333 125.719755,4.26002667 125.741555,4.78162667 C125.780368,5.70896 125.78728,6.64096 125.740491,7.56762667 C125.709255,8.18856 125.952902,8.32896 126.526196,8.32056 C128.542764,8.29082667 130.560395,8.32869333 132.57683,8.29522667 C133.135504,8.28602667 133.28677,8.46296 133.25633,9.00029333 C133.212067,9.78229333 133.203959,10.5714933 133.257792,11.3522933 C133.300461,11.9728267 133.067846,12.1034933 132.490962,12.09376 C130.474527,12.0598933 128.456896,12.0978933 126.440329,12.0696267 C125.886573,12.0618933 125.727731,12.2562933 125.742618,12.7876267 C125.774121,13.9222933 125.772792,15.05896 125.743283,16.1936267 C125.730256,16.6942933 125.919937,16.8268267 126.392742,16.8230933 C128.718355,16.8046933 131.044366,16.82856 133.369846,16.80496 C133.917221,16.79936 134.146911,16.9350933 134.112617,17.53056 C134.062904,18.3948267 134.082976,19.2644267 134.106636,20.13096 C134.118599,20.5650933 133.959092,20.7044267 133.531879,20.7008267 C131.535648,20.6842933 129.539152,20.6936267 127.542655,20.6936267" id="Fill-8" fill="#FFFFFF"></path>
                <path d="M48.9460386,3.86361333 C48.5379664,5.49361333 48.1691063,6.97014667 47.7985183,8.44628 C46.8099734,12.38228 45.8150482,16.31668 44.840859,20.2561467 C44.7474144,20.6341467 44.5480306,20.68268 44.226491,20.67988 C42.9921724,20.6692133 41.7571891,20.6580133 40.5232692,20.68468 C40.0343801,20.6953467 39.9358845,20.5945467 40.0899417,20.0969467 C41.3932472,15.8885467 42.6686389,11.6713467 43.9509426,7.45641333 C44.6222014,5.25001333 45.2974479,3.04481333 45.9530218,0.83388 C46.069462,0.440946667 46.235881,0.280546667 46.6766521,0.288946667 C48.3425702,0.320413333 50.0095518,0.311746667 51.6760016,0.29388 C52.0469884,0.28988 52.2051662,0.404546667 52.3178845,0.77148 C54.307469,7.24814667 56.3112762,13.7205467 58.3247868,20.18988 C58.4484048,20.5869467 58.3762278,20.6896133 57.9650984,20.6833467 C56.6692366,20.6636133 55.3723114,20.6561467 54.0768484,20.6872133 C53.6273044,20.6980133 53.4410799,20.56148 53.3247727,20.1172133 C52.4851011,16.9096133 51.6136609,13.7104133 50.7567093,10.5073467 C50.240704,8.57841333 49.7337375,6.64708 49.2191944,4.71788 C49.156322,4.48254667 49.0713845,4.25321333 48.9460386,3.86361333" id="Fill-10" fill="#FFFFFF"></path>
                <path d="M137.148767,10.5014933 C137.149033,7.34282667 137.159401,4.18402667 137.13933,1.02549333 C137.135741,0.47736 137.26986,0.279893333 137.861232,0.28376 C142.03912,0.310426667 146.217274,0.304293333 150.395163,0.29056 C150.90625,0.288826667 151.112811,0.355626667 150.899869,0.93696 C150.581121,1.80656 150.313947,2.69882667 150.089308,3.59762667 C149.980577,4.03229333 149.783187,4.14589333 149.36581,4.14282667 C147.060801,4.12642667 144.755525,4.15029333 142.450649,4.12349333 C141.928529,4.11736 141.778592,4.28202667 141.797866,4.79016 C141.833622,5.73842667 141.828704,6.68976 141.799461,7.63856 C141.783909,8.14296 141.945809,8.32616 142.466732,8.31882667 C144.298139,8.29296 146.130343,8.32402667 147.96175,8.30082667 C148.493972,8.29402667 148.661587,8.39802667 148.458481,8.95736 C148.142391,9.82802667 147.874553,10.7190933 147.63928,11.6154933 C147.537328,12.00416 147.345122,12.0892267 146.987959,12.0860267 C145.465066,12.0728267 143.941774,12.0932267 142.419013,12.0730933 C141.968007,12.0670933 141.792416,12.21536 141.800391,12.67656 C141.820596,13.8530933 141.821526,15.0302933 141.799328,16.2066933 C141.790821,16.6564267 141.932118,16.8352267 142.398809,16.8230933 C143.406627,16.7968267 144.415509,16.8220267 145.423993,16.8122933 C145.844161,16.8082933 146.040089,16.90336 145.878721,17.38896 C145.566884,18.32696 145.292001,19.2778933 145.022035,20.2292267 C144.909582,20.62576 144.665537,20.7040267 144.288701,20.7014933 C142.12778,20.6862933 139.966459,20.6786933 137.805803,20.7056267 C137.287671,20.71216 137.136007,20.5504267 137.139064,20.0394933 C137.157806,16.8602933 137.148501,13.6808267 137.148767,10.5014933" id="Fill-12" fill="#FFFFFF"></path>
                <path d="M87.4709902,10.47292 C87.4707244,7.31532 87.4812253,4.15772 87.4604893,1.00038667 C87.4570334,0.471986667 87.5895571,0.283053333 88.1490281,0.28652 C91.852117,0.30972 95.5556047,0.306786667 99.2588265,0.28852 C99.7519691,0.28612 99.9577332,0.39492 99.932345,0.93252 C99.8903415,1.81798667 99.898051,2.70772 99.9300853,3.59398667 C99.9463018,4.04038667 99.7857314,4.14665333 99.3656962,4.14318667 C97.1643661,4.12505333 94.9627702,4.14692 92.761573,4.12465333 C92.2854445,4.11985333 92.111183,4.24172 92.1279312,4.74505333 C92.1644849,5.83758667 92.1664788,6.93318667 92.1284629,8.02558667 C92.1095879,8.56358667 92.2629805,8.74318667 92.8171346,8.73452 C94.7918318,8.70345333 96.7673265,8.73585333 98.7421566,8.71265333 C99.2319761,8.70692 99.4469119,8.81745333 99.4196628,9.35852 C99.3771276,10.2023867 99.3843054,11.0510533 99.4178018,11.8959867 C99.4368098,12.3766533 99.2955131,12.54132 98.7965219,12.5343867 C96.8424277,12.5075867 94.8876689,12.5227867 92.933043,12.52332 C92.1390967,12.5235867 92.1392297,12.52492 92.1392297,13.3471867 C92.1392297,15.5759867 92.1258045,17.8050533 92.1494647,20.03372 C92.1547816,20.5390533 92.0188018,20.7227867 91.4942895,20.7055867 C90.3843864,20.6690533 89.2716918,20.6674533 88.1620545,20.7054533 C87.6201293,20.7238533 87.4557041,20.55612 87.4598247,20.0074533 C87.483352,16.8294533 87.4712561,13.6510533 87.4709902,10.47292" id="Fill-14" fill="#FFFFFF"></path>
                <path d="M61.1268204,10.48196 C61.1268204,7.30529333 61.1441004,4.12836 61.1111356,0.95196 C61.105154,0.372893333 61.2907139,0.271426667 61.8079155,0.290226667 C62.8758151,0.329026667 63.9473037,0.331293333 65.0150704,0.28956 C65.5669648,0.26796 65.7472077,0.40836 65.741625,0.99556 C65.7114516,4.23396 65.7270035,7.47262667 65.7270035,10.71116 C65.7270035,13.8260933 65.717566,16.9408933 65.7371056,20.05556 C65.7400299,20.5310267 65.6254507,20.70396 65.1260607,20.6880933 C63.9960863,20.6522267 62.8635863,20.6530267 61.7336118,20.68636 C61.2538944,20.7004933 61.1115343,20.5690267 61.1149903,20.0738267 C61.1379859,16.8766267 61.1268204,13.6792933 61.1268204,10.48196" id="Fill-16" fill="#FFFFFF"></path>
                <path d="M66.8818079,27.3670533 C66.8818079,28.0670533 66.8860614,28.7670533 66.8787507,29.4670533 C66.8768898,29.6355867 66.948668,29.87452 66.656903,29.8851867 C66.3659356,29.89572 66.4116609,29.6627867 66.4107305,29.4879867 C66.4056794,28.5803867 66.4040843,27.6727867 66.4119268,26.7651867 C66.4133889,26.5959867 66.3396169,26.3678533 66.6000121,26.30572 C66.8263792,26.25172 66.9837595,26.3414533 67.1075104,26.5499867 C67.4333035,27.09892 67.7723889,27.6403867 68.1201143,28.17572 C68.2272498,28.3406533 68.2769629,28.5591867 68.5281864,28.6647867 C68.7162718,28.4351867 68.6161812,28.16172 68.6265491,27.9166533 C68.6450254,27.48412 68.6334611,27.0503867 68.6410377,26.61732 C68.6436961,26.4726533 68.6526019,26.3163867 68.8537137,26.30292 C69.0499074,26.28972 69.09869,26.42092 69.0992217,26.5791867 C69.102013,27.5898533 69.1022789,28.6006533 69.1009496,29.6114533 C69.1006838,29.7375867 69.0822076,29.8583867 68.9208396,29.88692 C68.7093599,29.92452 68.5741776,29.8370533 68.4655799,29.6562533 C68.0836935,29.0207867 67.6933,28.3902533 67.3034382,27.7595867 C67.2105254,27.60932 67.1068458,27.46572 67.0080843,27.3190533 C66.9659479,27.3350533 66.9238114,27.3510533 66.8818079,27.3670533 Z M90.7542034,28.0815067 C90.7531401,27.2633733 90.2815309,26.68004 89.6112026,26.66764 C88.9092386,26.65444 88.4359015,27.2311067 88.4341735,28.1013733 C88.4325784,28.9239067 88.9040547,29.51484 89.5689332,29.5237733 C90.2586682,29.5331067 90.7552668,28.9287067 90.7542034,28.0815067 Z M91.2527959,28.03564 C91.2675503,29.1267067 90.6135714,29.8707067 89.6157219,29.89844 C88.6041814,29.92644 87.9113892,29.2079067 87.9044772,28.12364 C87.8976982,27.0591067 88.5846418,26.3093733 89.5831559,26.29124 C90.5682448,26.2733733 91.2384402,26.97364 91.2527959,28.03564 Z M76.5471239,28.0668 C76.5362242,27.2432 76.0662101,26.6745333 75.3900332,26.6666667 C74.6960446,26.6584 74.2284232,27.2450667 74.2326767,28.118 C74.2369302,28.9404 74.7134575,29.5252 75.3795323,29.5252 C76.0656784,29.5250667 76.5582893,28.9097333 76.5471239,28.0668 Z M73.7158739,28.1265333 C73.7145446,27.0116 74.4033492,26.2776 75.4382841,26.2912 C76.401042,26.3038667 77.027373,26.9848 77.0421274,28.0350667 C77.0578122,29.1633333 76.3877497,29.9025333 75.3517515,29.8994667 C74.3566934,29.8966667 73.7170702,29.2033333 73.7158739,28.1265333 Z M98.6860633,28.9201867 C98.6861962,29.8084533 98.6274445,29.87072 97.7058925,29.8976533 C96.9441135,29.9197867 96.2515871,29.7593867 95.8989436,28.99192 C95.5605228,28.25512 95.6416055,27.5245867 96.1662508,26.9052533 C96.7027261,26.2721867 97.440845,26.2144533 98.2038203,26.3480533 C98.3437878,26.3725867 98.5834471,26.3792533 98.5034277,26.6304533 C98.4315166,26.8561867 98.2374497,26.7480533 98.0821962,26.7285867 C96.9313529,26.58432 96.2244709,27.1152533 96.2166284,28.1280533 C96.2098494,29.0248533 96.9223142,29.62792 97.8107684,29.5017867 C98.1677983,29.45112 98.2290756,29.2448533 98.2152517,28.9405867 C98.2030228,28.66872 98.2508749,28.3800533 97.826852,28.4108533 C97.6933978,28.4204533 97.4976029,28.4384533 97.5074392,28.2269867 C97.5164779,28.0317867 97.7017719,28.0605867 97.8418723,28.0460533 C98.6806135,27.95912 98.6857974,27.9637867 98.6860633,28.9201867 Z M61.5121496,28.1488267 C61.5117508,28.62336 61.5109533,29.0978933 61.5121496,29.5724267 C61.5125483,29.7552267 61.4814445,29.9058933 61.2456399,29.88816 C61.0522376,29.87376 61.02233,29.7410933 61.0213996,29.5852267 C61.0203362,29.3994933 60.994948,29.2100267 61.0229946,29.0288267 C61.1161733,28.4270933 60.8774445,28.23936 60.2790272,28.2782933 C59.3016478,28.34176 59.4304497,28.14656 59.4158283,29.12896 C59.4133027,29.2940267 59.4138344,29.4590933 59.4131698,29.62416 C59.4125052,29.7902933 59.3585386,29.8994933 59.1644717,29.8932267 C58.9742596,29.8870933 58.9196284,29.7744267 58.9196284,29.6114933 C58.9193626,28.60056 58.9196284,27.5896267 58.9217552,26.5786933 C58.922021,26.41696 58.9789119,26.3010933 59.169257,26.2974933 C59.3670457,26.2938933 59.4075871,26.41816 59.4109101,26.5768267 C59.4142332,26.7418933 59.414632,26.90696 59.4150307,27.0718933 C59.4166258,27.86336 59.4164929,27.86336 60.2142939,27.86416 C61.0148864,27.86496 61.0148864,27.86496 61.0175448,27.0624267 C61.0178107,26.97976 61.0074427,26.89576 61.0200703,26.8150933 C61.051573,26.6156267 60.9171883,26.2988267 61.2871117,26.3094933 C61.610911,26.3186933 61.5020474,26.60576 61.507896,26.78736 C61.5223846,27.2406933 61.5125483,27.69496 61.5121496,28.1488267 Z M116.236517,29.8981733 C116.159688,29.8895067 116.012808,29.8897733 115.875632,29.8533733 C115.687414,29.8033733 115.405884,29.78164 115.49574,29.4907067 C115.579879,29.2185733 115.808107,29.4143067 115.965355,29.44004 C116.168593,29.4733733 116.36492,29.5263067 116.572146,29.46964 C116.804495,29.4061733 116.992979,29.2933733 117.039635,29.0375067 C117.088949,28.7675067 117.000954,28.54484 116.753585,28.41324 C116.500501,28.2785733 116.225351,28.1823067 115.983166,28.0315067 C115.447356,27.6977733 115.325067,27.16164 115.660165,26.7227067 C115.979312,26.3043067 116.94845,26.1273733 117.298302,26.41884 C117.370213,26.4787067 117.403975,26.53484 117.370213,26.62484 C117.327811,26.73804 117.245399,26.77804 117.130288,26.7619067 C116.948184,26.7365733 116.765814,26.6895067 116.583976,26.69124 C116.320258,26.6937733 116.091897,26.8099067 116.009352,27.07404 C115.921225,27.3557733 116.090568,27.54564 116.319328,27.67804 C116.460757,27.76004 116.614017,27.8219067 116.763555,27.8893733 C117.415407,28.1833733 117.675669,28.58804 117.547266,29.11124 C117.422718,29.61924 116.967325,29.9075067 116.236517,29.8981733 Z M44.965434,28.09968 C44.9650352,27.9554133 44.9651681,27.8111467 44.9649023,27.66688 C44.9633072,26.18888 45.1256056,26.0530133 46.6031725,26.28648 C46.7257271,26.3059467 46.8663592,26.3007467 46.8843037,26.4607467 C46.9090273,26.6802133 46.7343671,26.6686133 46.5946655,26.6759467 C46.430772,26.6846133 46.2631567,26.7002133 46.1023204,26.67688 C45.6065194,26.60488 45.433853,26.7710133 45.4359798,27.3046133 C45.4378407,27.8191467 45.6155581,27.9267467 46.0746725,27.9091467 C46.3118063,27.90008 46.76361,27.71688 46.763743,28.1103467 C46.763743,28.45008 46.3253644,28.28488 46.0936805,28.27848 C45.6521118,28.26648 45.4333213,28.3419467 45.4377077,28.8758133 C45.4419613,29.4042133 45.6109058,29.5398133 46.1101629,29.5254133 C46.3823882,29.51768 46.9021153,29.2731467 46.9082298,29.7406133 C46.9122174,30.0438133 46.3924903,29.8882133 46.113353,29.8931467 C44.9660986,29.9130133 44.9658327,29.90128 44.9659657,28.7798133 C44.9659657,28.5530133 44.9659657,28.3263467 44.965434,28.09968 Z M108.808101,28.0770133 C108.808367,27.62328 108.805708,27.1694133 108.809962,26.71568 C108.811158,26.57568 108.77487,26.3570133 108.929725,26.3335467 C109.498235,26.2474133 110.074188,26.2574133 110.645888,26.3283467 C110.726572,26.3383467 110.753289,26.4386133 110.740396,26.5295467 C110.725243,26.6351467 110.642964,26.65928 110.563343,26.6646133 C110.379112,26.6771467 110.193818,26.6795467 110.009056,26.6806133 C109.367572,26.6843467 109.075807,27.1390133 109.317061,27.7383467 C109.379668,27.8942133 109.48893,27.8922133 109.608959,27.89448 C109.855531,27.8991467 110.102501,27.8919467 110.349072,27.8994133 C110.466177,27.9030133 110.61598,27.88808 110.63552,28.0566133 C110.659579,28.2646133 110.501534,28.27888 110.353193,28.2867467 C110.250576,28.2922133 110.147694,28.2895467 110.044812,28.29048 C109.267348,28.2970133 109.288084,28.2967467 109.297123,29.0711467 C109.301377,29.43528 109.436692,29.5407467 109.772055,29.5115467 C110.016899,29.49008 110.265198,29.50568 110.511902,29.5102133 C110.636849,29.51248 110.767512,29.52608 110.783197,29.69008 C110.799546,29.86088 110.677125,29.8958133 110.546728,29.8966133 C110.053319,29.8995467 109.559778,29.8991467 109.066237,29.8950133 C108.79122,29.8927467 108.8085,29.68728 108.808101,29.5002133 C108.807171,29.0258133 108.807835,28.5514133 108.808101,28.0770133 Z M53.6380445,26.6957733 C53.0426845,26.6617733 52.5462188,26.75524 52.2396995,27.26004 C51.8992849,27.82124 51.9031396,28.4085733 52.2484724,28.9599067 C52.5608403,29.45844 53.0662118,29.5293733 53.608137,29.4749733 C53.7862532,29.4571067 54.0629979,29.25604 54.1121792,29.5811067 C54.1549803,29.86324 53.8462012,29.8465733 53.6607743,29.8709733 C52.9262444,29.9681733 52.2343826,29.8593733 51.8043782,29.18524 C51.3683923,28.5019067 51.384343,27.76084 51.8026502,27.07244 C52.1995569,26.4191067 52.8510102,26.2465733 53.5707857,26.30404 C53.7776132,26.32044 54.1256044,26.27764 54.1141731,26.5601733 C54.0980894,26.9499067 53.7725621,26.6723067 53.6380445,26.6957733 Z M38.9092839,28.26348 C38.9094168,28.01628 38.8872187,27.7668133 38.9139362,27.5225467 C38.9753464,26.9596133 38.9173922,26.5301467 38.174621,26.6756133 C38.0654916,26.6969467 37.9111686,26.6960133 37.8957496,26.51988 C37.8779379,26.3169467 38.0198992,26.2880133 38.1760832,26.2881467 C38.8535893,26.2884133 39.5309626,26.2880133 40.2084687,26.2920133 C40.3375365,26.2928133 40.4659397,26.3309467 40.4658068,26.4901467 C40.4655409,26.6564133 40.3271686,26.6681467 40.2027531,26.6753467 C40.1004027,26.6813467 39.9951281,26.6945467 39.8953033,26.6781467 C39.4611783,26.6069467 39.3879379,26.82948 39.4001668,27.2069467 C39.4243587,27.94748 39.4138578,28.68948 39.403224,29.43068 C39.4006985,29.6101467 39.5046439,29.8852133 39.1652927,29.8885467 C38.8313913,29.8917467 38.917658,29.6237467 38.912474,29.4372133 C38.9015744,29.04628 38.9092839,28.6548133 38.9092839,28.26348 Z M81.7615553,28.0525333 C81.7618211,27.64 81.7501239,27.2269333 81.7670051,26.8150667 C81.7752463,26.6154667 81.6617305,26.2974667 82.0312551,26.3106667 C82.3493387,26.322 82.2499127,26.6084 82.252704,26.7916 C82.2636037,27.5133333 82.2794215,28.2364 82.2488493,28.9570667 C82.2302401,29.3933333 82.3831011,29.5152 82.8097824,29.5265333 C83.1051363,29.5344 83.6510491,29.2664 83.6623475,29.7412 C83.6696583,30.0505333 83.107263,29.8869333 82.8056618,29.8937333 C81.761954,29.9170667 81.7616882,29.9032 81.7611565,28.8570667 C81.7610236,28.5888 81.7611565,28.3206667 81.7615553,28.0525333 Z M103.993035,28.1544933 C103.992637,28.6276933 103.991573,29.1010267 103.993035,29.5742267 C103.9937,29.7592933 103.954754,29.9046267 103.723601,29.8874267 C103.531528,29.8730267 103.500026,29.7398267 103.500026,29.5844933 C103.500424,28.5968933 103.50069,27.6092933 103.502684,26.62156 C103.503083,26.44076 103.546283,26.2854267 103.774777,26.3036933 C104.014303,26.3228933 103.990377,26.51316 103.991839,26.6730267 C103.996358,27.16676 103.993567,27.6606267 103.993035,28.1544933 Z M140.919726,28.07676 L140.922385,28.07676 C140.922385,28.4480933 140.922518,28.8192933 140.922385,29.1906267 C140.922385,29.3694267 140.958673,29.4878267 141.180122,29.5308933 C141.98005,29.6862267 142.750336,29.1226267 142.859598,28.27716 C142.978962,27.3528933 142.477844,26.7310267 141.593112,26.6606267 C141.12363,26.6232933 140.832529,26.7040933 140.913346,27.27316 C140.950697,27.53596 140.919726,27.8086267 140.919726,28.07676 Z M140.420602,28.0902267 C140.420204,27.7810267 140.420071,27.4718267 140.420204,27.1626267 C140.420735,26.2980933 140.420735,26.2980933 141.312513,26.28996 C142.975772,26.2746267 143.807601,27.4104933 143.197221,28.86316 C142.857471,29.6720933 141.390538,30.2318267 140.597256,29.8662267 C140.393353,29.7722267 140.424989,29.6074267 140.422995,29.4506267 C140.417146,28.99716 140.421001,28.5436933 140.420602,28.0902267 Z M134.369344,28.2817067 C134.369344,28.0141067 134.345949,27.7441067 134.374129,27.47944 C134.433678,26.91904 134.330796,26.5419733 133.639067,26.6733067 C133.504018,26.6989067 133.326567,26.6841067 133.335738,26.4729067 C133.34265,26.31504 133.477035,26.2905067 133.606501,26.29024 C134.283609,26.28904 134.960849,26.28744 135.637824,26.29104 C135.782975,26.29184 135.9474,26.30264 135.927462,26.51224 C135.911777,26.67864 135.75639,26.6953067 135.645533,26.6721067 C134.802273,26.4949067 134.834706,27.0259733 134.858632,27.6005067 C134.885083,28.23744 134.866341,28.8763733 134.863018,29.5145067 C134.862221,29.6739733 134.892527,29.8657067 134.650608,29.88464 C134.37599,29.90624 134.369211,29.7121067 134.369344,29.5167733 C134.36961,29.10504 134.369344,28.69344 134.369344,28.2817067 Z M127.576072,28.0604133 C127.576869,27.58668 127.57461,27.11308 127.578066,26.63948 C127.579262,26.4700133 127.590826,26.2989467 127.82889,26.3001467 C128.070278,26.30148 128.071341,26.4785467 128.072006,26.6445467 C128.075595,27.42708 128.092476,28.21028 128.067752,28.99188 C128.055125,29.3897467 128.175685,29.5220133 128.585751,29.5245467 C128.897455,29.52668 129.490555,29.3185467 129.480054,29.68988 C129.468091,30.1125467 128.880441,29.8777467 128.555977,29.8896133 C127.575939,29.92548 127.575141,29.90268 127.575274,28.9253467 C127.575407,28.63708 127.575274,28.34868 127.576072,28.0604133 Z" id="Combined-Shape" fill="#FFFFFF"></path>
                <path d="M20.0693356,5.32428 L20.2108981,5.32494667 C24.6097035,5.32414667 29.0083761,5.32428 33.4070486,5.32428 C33.4316393,5.32428 33.4566287,5.32694667 33.4809535,5.32401333 C33.6366058,5.30548 33.6760838,5.35961333 33.6267695,5.51401333 C33.4558312,6.04961333 33.2952607,6.58854667 33.1309685,7.12628 C32.8438558,8.06574667 32.5532871,9.00401333 32.2734852,9.94561333 C32.227494,10.10028 32.1531903,10.14348 31.9991331,10.1432133 C30.0559386,10.1384133 28.1126111,10.1400133 26.1692836,10.1400133 C25.9193893,10.1400133 25.9192563,10.1405467 25.9192563,10.3957467 C25.9192563,12.19028 25.9223136,13.9849467 25.9148699,15.77948 C25.9140724,15.97068 25.9687035,16.01668 26.1538646,16.0156133 C27.5048893,16.0077467 28.8559139,16.01108 30.2070715,16.0112133 C30.4168232,16.0112133 30.4188171,16.0173467 30.3574069,16.2189467 C29.9235477,17.6433467 29.4902202,19.0680133 29.0576903,20.4928133 C28.9736833,20.7696133 28.9752783,20.7701467 28.6863048,20.7701467 C27.8288215,20.77028 26.9712053,20.7737467 26.1138549,20.7669467 C25.9583356,20.7657467 25.9156674,20.81508 25.916332,20.9673467 C25.921516,22.0749467 25.9152687,23.18268 25.9216489,24.2904133 C25.9225794,24.4613467 25.8865574,24.5249467 25.6998012,24.5241467 C23.9909491,24.5168133 22.282097,24.5181467 20.5732449,24.52268 C20.4210486,24.52308 20.3416938,24.4885467 20.3014183,24.3265467 C20.2271146,24.02748 20.1247643,23.73548 20.0338452,23.44068 C20.0967176,23.3572133 20.0657467,23.2608133 20.0657467,23.1712133 C20.0674746,17.4400133 20.0665442,11.70868 20.0693356,5.97734667 C20.0694685,5.75828 20.0693356,5.32428 20.0693356,5.32428" id="Fill-49" fill="#D0DC27"></path>
                <path d="M20.0693356,5.97337333 C20.0665442,11.7045733 20.0674746,17.4359067 20.0657467,23.1671067 C20.0657467,23.2567067 20.0967176,23.35324 20.0338452,23.4365733 C18.6692625,19.02724 17.3045468,14.6179067 15.9228171,10.1533733 C15.8003954,10.54404 15.692994,10.8829733 15.5879852,11.2225733 C14.5620891,14.53924 13.5367246,17.8561733 12.5108285,21.17284 C12.1823769,22.2351067 11.8504694,23.2963067 11.5269359,24.3601733 C11.4917114,24.4759067 11.4454544,24.5163067 11.324362,24.51604 C9.7697,24.5121733 8.21503803,24.51164 6.66037606,24.5161733 C6.504325,24.5167067 6.4907669,24.47404 6.53343504,24.33484 C7.19538926,22.1739067 7.85229243,20.0115067 8.51065775,17.8495067 C9.53775018,14.4761733 10.5648426,11.10284 11.5924667,7.72964 C11.8209606,6.97950667 12.0534421,6.23057333 12.2790116,5.47937333 C12.3118435,5.37004 12.3531824,5.32404 12.4786613,5.32430667 C14.9403866,5.32830667 17.6077431,5.32364 20.0693356,5.32430667 C20.0693356,5.32430667 20.0694685,5.75417333 20.0693356,5.97337333" id="Fill-51" fill="#00974C"></path>
                <path d="M25.9216224,24.29088 C25.9225528,24.4618133 25.8865308,24.5254133 25.6999076,24.5246133 C23.9910555,24.51728 22.2820704,24.5186133 20.5732183,24.5231467 C20.4211549,24.5235467 20.3416673,24.4890133 20.3013917,24.3270133 C20.227088,24.0279467 20.1247377,23.7359467 20.0339516,23.4410133 C20.096691,23.35768 20.0657201,23.26128 20.0657201,23.17168 C20.0674481,17.44048 20.0666505,11.7091467 20.069309,5.97794667 C20.0694419,5.75874667 25.9152421,23.18328 25.9216224,24.29088" id="Fill-53" fill="#7BC142"></path>
            </g>
        </g>
    </g>
</svg>