<?xml version="1.0" encoding="UTF-8"?>
<svg width="48px" height="48px" viewBox="0 0 48 48" version="1.1" xmlns="http://www.w3.org/2000/svg" xmlns:xlink="http://www.w3.org/1999/xlink">
    <!-- Generator: sketchtool 54 (76480) - https://sketchapp.com -->
    <title>14CE7E8F-92E9-4150-AD7B-2B74CC34EF88</title>
    <desc>Created with sketchtool.</desc>
    <g id="Page-1" stroke="none" stroke-width="1" fill="none" fill-rule="evenodd">
        <g id="Landing-page" transform="translate(-561.000000, -1115.000000)" fill="#8AC34E" fill-rule="nonzero">
            <path d="M585,1115 C571.745124,1115 561,1125.74512 561,1139 C561,1152.25488 571.745124,1163 585,1163 C598.254876,1163 609,1152.25488 609,1139 C608.982202,1125.75254 598.247461,1115.0178 585,1115 Z M579.067416,1117.42697 C576.691416,1119.66625 574.889663,1122.44485 573.814382,1125.52764 C572.02827,1125.09389 570.279101,1124.52045 568.582921,1123.81258 C571.413978,1120.748 575.045528,1118.53622 579.067416,1117.42697 Z M567.482697,1125.08539 C569.355101,1125.93267 571.296674,1126.61829 573.285843,1127.13483 C572.15973,1130.71447 571.560135,1134.43879 571.506067,1138.19101 L571.506067,1138.15865 L562.661124,1138.15865 C562.827371,1133.39708 564.517348,1128.81456 567.482697,1125.08539 Z M567.482697,1152.82831 C564.517348,1149.09915 562.827371,1144.51663 562.661124,1139.75506 L571.506067,1139.77663 C571.557034,1143.53964 572.156629,1147.27515 573.285843,1150.86517 C571.299236,1151.3538 569.357933,1152.01056 567.482697,1152.82831 Z M568.582921,1154.16584 L568.582921,1154.10112 C570.279101,1153.39312 572.02827,1152.81969 573.814382,1152.38607 C574.877258,1155.49987 576.67982,1158.30921 579.067416,1160.57303 C575.043101,1159.45771 571.411281,1157.23825 568.582921,1154.16584 Z M584.191011,1161.30652 C580.566742,1160.8427 577.395506,1157.32629 575.378427,1152.10562 C578.280674,1151.52139 581.230787,1151.20724 584.191011,1151.16719 L584.191011,1161.30652 Z M584.191011,1149.48449 C581.048629,1149.52454 577.917169,1149.86404 574.839101,1150.49843 C573.759506,1147.03582 573.185393,1143.43555 573.134831,1139.80899 L573.134831,1139.77663 L584.191011,1139.77663 L584.191011,1149.48449 Z M584.191011,1138.15865 L573.134831,1138.15865 C573.17609,1134.49946 573.750202,1130.86575 574.839101,1127.37213 C577.915011,1128.02822 581.046472,1128.38944 584.191011,1128.45079 L584.191011,1138.15865 Z M584.191011,1126.83281 C581.231191,1126.79613 578.281079,1126.48562 575.378427,1125.90517 C577.395506,1120.66292 580.566742,1117.1573 584.191011,1116.69348 L584.191011,1126.83281 Z M602.517303,1125.15011 C605.482652,1128.87928 607.172629,1133.4618 607.338876,1138.22337 L598.493933,1138.22337 C598.445124,1134.45308 597.845393,1130.71016 596.714157,1127.11326 C598.700764,1126.62463 600.642067,1125.96787 602.517303,1125.15011 Z M601.406292,1123.83416 C599.710112,1124.54202 597.960944,1125.11546 596.174831,1125.54921 C595.105753,1122.45969 593.307506,1119.67353 590.932584,1117.42697 C594.952989,1118.54404 598.580899,1120.76337 601.406292,1123.83416 Z M585.808989,1116.69348 C589.433258,1117.1573 592.604494,1120.67371 594.621573,1125.89438 C591.719326,1126.47847 588.769213,1126.79263 585.808989,1126.83281 L585.808989,1116.69348 Z M585.808989,1128.45079 C588.951371,1128.41088 592.082966,1128.07137 595.160899,1127.43685 C596.249798,1130.93047 596.82391,1134.56418 596.865169,1138.22337 L585.808989,1138.22337 L585.808989,1128.45079 Z M585.808989,1139.84135 L596.865169,1139.84135 C596.82391,1143.50054 596.249798,1147.13425 595.160899,1150.62787 C592.084989,1149.97164 588.953528,1149.61056 585.808989,1149.54921 L585.808989,1139.84135 Z M585.808989,1161.30652 L585.808989,1151.16719 C588.768809,1151.20373 591.718921,1151.51425 594.621573,1152.09483 C592.604494,1157.33708 589.433258,1160.8427 585.808989,1161.30652 Z M590.932584,1160.57303 C593.310067,1158.33065 595.111955,1155.54827 596.185618,1152.46157 C597.97173,1152.89519 599.720899,1153.46863 601.417079,1154.17663 C598.587371,1157.24512 594.955685,1159.46081 590.932584,1160.57303 Z M602.517303,1152.91461 C600.644899,1152.06733 598.703461,1151.38157 596.714157,1150.86517 C597.84027,1147.28553 598.439865,1143.56121 598.493933,1139.80899 L598.493933,1139.84135 L607.338876,1139.84135 C607.172629,1144.60292 605.482652,1149.18544 602.517303,1152.91461 Z" id="Shape-Copy-2"></path>
        </g>
    </g>
</svg>