<?xml version="1.0" encoding="UTF-8"?>
<svg width="403px" height="264px" viewBox="0 0 403 264" version="1.1" xmlns="http://www.w3.org/2000/svg" xmlns:xlink="http://www.w3.org/1999/xlink">
    <!-- Generator: sketchtool 54 (76480) - https://sketchapp.com -->
    <title>08DEA1C0-A540-4B3C-970D-1C094E99ECC4</title>
    <desc>Created with sketchtool.</desc>
    <g id="Page-1" stroke="none" stroke-width="1" fill="none" fill-rule="evenodd">
        <g id="Pricing" transform="translate(-645.000000, -1483.000000)">
            <g id="teamwork_white_5" transform="translate(305.000000, 1461.000000)">
                <g transform="translate(340.000000, 22.000000)">
                    <polygon id="Path" fill="#222747" points="181 208 181 263 114.955 263 113 212.889394"></polygon>
                    <path d="M104.121304,81 L92.47892,144.643431 L52.3045742,147.572155 C52.3045742,147.572155 50.266177,153.007191 51.2853756,157.439703 L52.3045742,161.872214 C52.3045742,161.872214 96.7069143,162.666349 103.919705,160.295209 C111.132495,157.924069 111.098895,100.216937 110.970095,93.8751224 C110.841295,87.5333079 104.121304,81 104.121304,81 Z" id="Path" fill="#303D72"></path>
                    <path d="M169.621915,77 L201.068441,103.242119 L258.656307,92.7350431 C258.656307,92.7350431 262.434415,100.270134 262.717207,103.071642 L263,105.878833 C263,105.878833 206.203953,123.347061 198.828725,122.994741 C191.453496,122.642422 164,100.10534 164,100.10534 L169.621915,77 Z" id="Path" fill="#303D72"></path>
                    <path d="M126.84269,71 L104,80.7810869 L105.483876,216.519651 C105.483876,216.519651 149.376238,225.193976 166.688119,220.716361 L184,216.221893 L171.690578,81.1574986 C171.484442,78.9452921 169.909548,77.1012869 167.75606,76.5506685 L147.364013,71.2696681 L126.84269,71 Z" id="Path" fill="#303D72"></path>
                    <path d="M104,102 L105.238689,216.505513 C105.238689,216.505513 140.119043,223.407848 160,221.740019 L104,102 Z" id="Path" fill="#26335E"></path>
                    <polygon id="Path" fill="#E68D5C" points="211.064221 131.381857 208.089414 163.536829 183 210.051836 190.947787 214 224.838141 166.746122 226 130"></polygon>
                    <path d="M275.763399,233.604536 C275.763399,233.604536 277,245.094346 277,250.498356 C277,255.902367 274.622353,264 274.622353,264 L234,264 L236.945359,230 L275.763399,233.604536 Z" id="Path" fill="#303D72"></path>
                    <path d="M209,131.113758 C209,131.113758 212.501124,109.095921 219.081888,102.949156 C223.802505,98.5284981 228.405106,98.653826 231.619621,99.3944001 C234.834136,100.134974 237.801381,111.329036 234.671163,126.425354 C232.518786,136.890236 232.237797,137.989703 232.237797,137.989703 C232.237797,137.989703 215.299775,138.565072 209,131.113758 Z" id="Path" fill="#0CBFD1"></path>
                    <path d="M254.5928,93 L281,104.825843 L276.149355,235 L212,235 L217.779372,107.241573 C217.895388,104.741418 219.278299,102.47505 221.443931,101.235955 L235.430795,93.2640449 L254.5928,93 Z" id="Path" fill="#60D6E6"></path>
                    <path d="M116.909057,161 L122.557153,217.053232 L182.991788,242.72759 C182.991788,242.72759 187.510265,248.047705 182.991788,255 L115,235.199231 L116.909057,161 Z" id="Path" fill="#E2E2E2"></path>
                    <path d="M77.3254555,148.209824 L56.8957792,156.121507 C53.2489525,157.523231 50.8848645,161.090878 51.0043266,165.012303 L54.1572618,265 L118,265 L116.443133,162.367573 C116.372978,157.504825 113.26803,153.211395 108.686801,151.642346 L95.1230188,147 L77.3254555,148.209824 Z" id="Path" fill="#F0F1F4"></path>
                    <rect id="Rectangle" fill="#303D72" x="337" y="88" width="1" height="178"></rect>
                    <rect id="Rectangle" fill="#303D72" x="345" y="105" width="1" height="157"></rect>
                    <rect id="Rectangle" fill="#303D72" x="342" y="138" width="1" height="130"></rect>
                    <rect id="Rectangle" fill="#303D72" x="328" y="166" width="1" height="102"></rect>
                    <rect id="Rectangle" fill="#303D72" x="350" y="194" width="1" height="72"></rect>
                    <path d="M324.463131,125.571897 C334.050698,120.740473 344.856449,122.914051 348.668917,130.431477 C352.481385,137.948903 347.822955,147.932721 338.286146,152.786669 C328.749337,157.640618 308.451894,175.693703 304.639427,168.204432 C300.826959,160.715161 314.909403,130.403322 324.463131,125.571897 Z" id="Path" fill="#303D72"></path>
                    <path d="M313.023543,221.788052 C321.242793,212.980806 335.357971,212.705404 344.555166,221.186664 C353.75236,229.667923 354.532454,243.668464 346.313203,252.486951 C338.093953,261.305437 325.578533,289.92477 316.386991,281.449131 C307.19545,272.973492 304.804292,230.600918 313.023543,221.788052 Z" id="Path" fill="#303D72"></path>
                    <path d="M306.413172,168.051934 C317.540557,160.529832 331.37506,161.520767 337.308161,170.270278 C343.241262,179.019789 339.039589,192.228509 327.917844,199.73372 C316.796099,207.238931 294.451093,232.952584 288.512352,224.208703 C282.573611,215.464823 295.291427,175.574035 306.413172,168.051934 Z" id="Path" fill="#00C99C"></path>
                    <path d="M306.145618,168.013 C295.821336,175.050401 284.106391,210.562124 287.644238,222 C297.173061,193.005012 303.364292,184.428004 313.232437,173.891498 C317.177836,169.683261 321.840754,166.22085 327,163.668511 C320.66414,162.016933 312.898677,163.410977 306.145618,168.013 Z" id="Path" fill="#00B98F"></path>
                    <path d="M369.94061,132.535557 C357.138331,128.311324 344.075936,133.10333 340.767927,143.221048 C337.459917,153.338765 345.144677,164.978115 357.946956,169.19667 C370.749234,173.415225 399.37341,192.163095 402.681419,182.039699 C405.989428,171.916304 382.737234,136.754111 369.94061,132.535557 Z" id="Path" fill="#00C99C"></path>
                    <path d="M370.336136,132.531268 C382.236102,136.506398 403.298483,167.875853 402.996794,180 C385.850787,154.394483 377.52081,147.761695 365.101269,140.248699 C360.137893,137.243883 354.684418,135.168549 349,134.12132 C354.692988,130.753817 362.55367,129.936076 370.336136,132.531268 Z" id="Path" fill="#00B98F"></path>
                    <polygon id="Path" fill="#E2E2E2" points="52 188.66708 54.4407911 265 119 265 118.388386 246.349938 64.9628096 217.404773 69.7990871 179"></polygon>
                    <path d="M354.814352,93.882199 C346.546861,97.3546319 342.067693,105.436239 344.802761,111.934326 C347.537828,118.432413 356.456525,120.89818 364.718353,117.425747 C372.980181,113.953314 395.506263,110.854139 392.771195,104.350397 C390.036128,97.8466542 363.07618,90.4154215 354.814352,93.882199 Z" id="Path" fill="#00C99C"></path>
                    <path d="M336.490626,75.0453024 C341.596781,78.553929 343.494793,84.663199 340.728959,88.6874704 C337.963125,92.7117418 331.591629,93.1264996 326.491073,89.617873 C321.390517,86.1092464 306.592746,80.8407016 309.336185,76.8220351 C312.079623,72.8033685 331.39007,71.5422806 336.490626,75.0453024 Z" id="Path" fill="#303D72"></path>
                    <path d="M354.076243,93.8756405 C361.787882,90.6374169 385.916946,96.979172 391,103.113277 C371.341778,97.922017 364.259202,98.281196 354.761472,99.9929087 C350.96472,100.679779 347.320693,102.036652 344,104 C345.409775,99.8469922 349.032505,95.9970418 354.076243,93.8756405 Z" id="Path" fill="#00B98F"></path>
                    <rect id="Rectangle" fill="#A9C2DC" x="0" y="259" width="390" height="6"></rect>
                    <path d="M308.240544,235.938391 C319.935657,229.240165 333.676991,231.291568 338.945162,240.528545 C344.213333,249.765523 339.001687,262.680291 327.312227,269.378517 C315.622766,276.076742 291.328133,300.160887 286.048657,290.912575 C280.769181,281.664264 296.551083,242.642283 308.240544,235.938391 Z" id="Path" fill="#00C99C"></path>
                    <path d="M308.384925,235.936808 C297.306986,242.245218 282.608508,277.205031 285.329605,289 C297.284215,260.473291 304.274816,252.288796 315.159205,242.420924 C319.51178,238.474372 324.537725,235.334091 330,233.148185 C323.658364,231.011374 315.631696,231.810552 308.384925,235.936808 Z" id="Path" fill="#00B98F"></path>
                    <path d="M380.116145,199.63075 C365.224444,189.448887 345.474659,189.448887 336.002246,199.676003 C326.529832,209.90312 330.900407,226.442991 345.814782,236.636168 C360.729157,246.829345 389.344804,280.299393 398.817218,270.08359 C408.289632,259.867787 395.007845,209.823927 380.116145,199.63075 Z" id="Path" fill="#00C99C"></path>
                    <path d="M380.276533,199.641925 C394.188795,209.27541 406.682817,254.20145 400.272596,268 C390.142308,231.324756 382.296962,220.172581 369.44838,206.283362 C364.153304,200.608522 357.908847,195.914935 351,192.416811 C360.25233,190.949121 371.153646,193.357492 380.276533,199.641925 Z" id="Path" fill="#00B98F"></path>
                    <path d="M105.937227,243 C105.937227,243 117.171801,246.248588 122.92952,248.084746 C128.68724,249.920904 132.265451,252.813559 131.984587,253.80226 C131.703723,254.79096 131.282426,255 131.282426,255 L107.830252,255 L98,249.316384 L105.937227,243 Z" id="Path" fill="#FBAD83"></path>
                    <path d="M52.4545719,160 C52.4545719,160 31.1319508,212.833531 35.6209237,229.262611 C40.1098966,245.691691 105.390785,255 105.390785,255 C105.390785,255 107.292987,250.207715 107.635271,246.543027 L108,242.878338 L50.9619885,223.134125 C50.9619885,223.134125 69.2994426,186.002374 70.3038503,174.08368 C71.308258,162.164985 52.4545719,160 52.4545719,160 Z" id="Path" fill="#F0F1F4"></path>
                    <path d="M147,255 L235.484834,255 C237.426206,255 239,253.440861 239,251.517566 L239,190.482434 C239,188.559139 237.426206,187 235.484834,187 L147,187 L147,255 Z" id="Path" fill="#A9C2DC"></path>
                    <path d="M146,255 L147.561338,255 C149.459044,254.996914 150.99659,253.605287 151,251.887679 L151,190.112321 C150.99659,188.394713 149.459044,187.003086 147.561338,187 L146,187 L146,255 Z" id="Path" fill="#19192B"></path>
                    <path d="M188,221 C188,224.882726 190.463814,228 193.502905,228 C196.541997,228 199,224.866086 199,221 C199,217.133914 196.536186,214 193.502905,214 C190.469625,214 188,217.133914 188,221 Z" id="Path" fill="#FFFFFF"></path>
                    <rect id="Rectangle" fill="#19192B" x="96" y="255" width="50" height="5"></rect>
                    <rect id="Rectangle" fill="#303D72" x="146" y="255" width="90" height="5"></rect>
                    <polygon id="Path" fill="#0CBFD1" points="275.783151 235 280 123.507414 269.013399 121 243 235"></polygon>
                    <path d="M78,148.226961 C78,148.226961 82.8119569,157.140975 90.1895438,156.998306 C97.5671307,156.855636 95.8193653,147 95.8193653,147 L78,148.226961 Z" id="Path" fill="#FFFFFF"></path>
                    <path d="M109.381084,103 C109.381084,103 113.127528,133.40074 111.658558,139.343999 C110.189587,145.287258 95.1468764,144.078073 87.6824577,143.47348 C80.2180391,142.868888 76.2438482,143.878443 72.9756741,142.053258 C69.7074999,140.228073 75.6972546,121.211925 75.6972546,121.211925 L109.381084,103 Z" id="Path" fill="#7A4029"></path>
                    <path d="M101.089918,143.997597 C96.5596425,144.102719 92.6768713,140.747794 92.078535,136.211274 C91.4801988,131.674754 94.3580267,127.410308 98.7575818,126.314075 C98.9046798,126.274699 99.0557519,126.362242 99.0963259,126.510371 C99.1356178,126.660332 99.0493938,126.814593 98.9019646,126.858097 C94.6712344,128.025121 92.0611668,132.305376 92.9331945,136.646296 C93.8052222,140.987216 97.8606049,143.901683 102.207149,143.311174 C106.553692,142.720665 109.702353,138.827477 109.407587,134.408132 C109.112821,129.988787 105.47561,126.557269 101.089918,126.560848 C100.936572,126.560848 100.812259,126.435298 100.812259,126.280424 C100.815214,126.126803 100.937812,126.002984 101.089918,126 C106.010821,126 110,130.028899 110,134.998798 C110,139.968697 106.010821,143.997597 101.089918,143.997597 L101.089918,143.997597 Z" id="Path" fill="#FFFFFF"></path>
                    <path d="M97,135.07061 L95.6040816,147.198911 C95.6040816,147.198911 93.9422741,149.99732 85.2565598,149.99732 C82.7478224,150.0433 80.2630803,149.497119 78,148.402227 L78,127 L97,135.07061 Z" id="Path" fill="#FBAD83"></path>
                    <path d="M97,134.473301 L96.0047939,142.953279 C94.3541999,143.077123 92.694153,142.954414 91.0805369,142.589283 C88.9520614,142.10585 82.8715244,135.895162 79,127 L97,134.473301 Z" id="Path" fill="#E68D5C"></path>
                    <path d="M108.280661,96.0421171 C108.280661,96.0421171 110.354875,116.455857 107.45891,126.339636 C104.562944,136.223414 95.5576819,140.387075 87.5725248,138.594622 C84.6142196,137.920345 73.9031145,125.980021 72.5486414,111.230209 C71.1941684,96.4803972 72.4863017,92.0357872 74.906218,88.9172555 C77.3261343,85.7987239 99.3150696,81.9160115 103.310482,85.3267299 C107.305894,88.7374483 108.280661,96.0421171 108.280661,96.0421171 Z" id="Path" fill="#FBAD83"></path>
                    <path d="M101,95.0737935 C101,95.0737935 107.674178,104.710008 109.358158,104.991065 C111.042139,105.272121 111.227377,98.870921 110.811995,93.1121354 C110.13279,84.0150896 103.946967,80 103.946967,80 L101,95.0737935 Z" id="Path" fill="#7A4029"></path>
                    <path d="M108,88.1366565 C108,88.1366565 106.005494,99.1237214 101.819839,105.694637 C97.6341851,112.265553 81.919722,109.869497 79.1105581,110.065895 C76.3013941,110.262293 79.5094593,132.359873 81.5039657,139.727604 C83.4984721,147.095334 69.1436444,144.901288 64.5590888,143.908075 C59.9745333,142.914863 57.5811256,104.101008 63.5646448,89.0681442 C69.548164,74.0352806 94.25757,74.6188632 101.033273,77.9127381 C105.00643,79.8457457 107.657269,83.7359469 108,88.1366565 L108,88.1366565 Z" id="Path" fill="#7A4029"></path>
                    <path d="M72,122.384817 C72,125.356545 76.0517685,128 78.53473,128 C81.0176915,128 80.9999982,125.356545 80.9999982,122.384817 C80.9999982,119.413089 78.9829606,117 76.5,117 C74.0170376,117 72,119.390052 72,122.384817 Z" id="Path" fill="#FBAD83"></path>
                    <path d="M74.0604174,121.073313 C74.3436378,119.684324 76.5400409,118.814839 77.7307225,119.033577 C78.9214042,119.252315 75.7944198,120.045242 75.5111994,121.428763 C75.227979,122.812284 76.8984014,124.195804 75.7077197,123.977066 C74.517038,123.758328 73.777197,122.456834 74.0604174,121.073313 Z" id="Path" fill="#E68D5C"></path>
                    <path d="M90.5790761,115 C90.321978,114.999404 90.0959393,114.84698 90.0235399,114.625386 C89.9511404,114.403793 90.0496271,114.165819 90.265591,114.040516 L95.3452095,111.083844 C95.4809015,111.004864 95.647115,110.980296 95.8038265,111.016054 L99.5656468,111.897319 C99.8766449,111.970758 100.062481,112.256753 99.9807242,112.536107 C99.8989669,112.815461 99.5805757,112.982388 99.2695776,112.90895 L95.7573842,112.085045 L90.8925611,114.916567 C90.799123,114.970781 90.6903119,114.999741 90.5790761,115 Z" id="Path" fill="#F76A00"></path>
                    <path d="M110.385406,113.999984 C110.272987,113.999705 110.163018,113.96851 110.068586,113.91011 L107.258279,112.168803 L103.738061,113.056308 C103.534741,113.107481 103.318349,113.050918 103.1704,112.907924 C103.02245,112.76493 102.965419,112.557231 103.02079,112.363063 C103.076161,112.168896 103.235522,112.01776 103.438843,111.966587 L107.240678,111.017293 C107.399056,110.978775 107.567038,111.00524 107.704173,111.090316 L110.731561,112.966434 C110.950748,113.101969 111.050104,113.359807 110.975376,113.599158 C110.900648,113.838508 110.669796,114.001847 110.408874,113.999984 L110.385406,113.999984 Z" id="Path" fill="#F76A00"></path>
                    <path d="M78.086246,144.971954 C73.5592079,145.064238 69.68413,141.718359 69.0802873,137.195892 C68.4764446,132.673424 71.3360924,128.41426 75.7263137,127.297289 C75.8800112,127.255467 76.0382486,127.347131 76.0797469,127.502026 C76.1212453,127.65692 76.0302899,127.81639 75.8765924,127.858211 C71.63619,129.025391 69.0201553,133.306218 69.8941766,137.647718 C70.7681979,141.989217 74.832852,144.904073 79.1893327,144.313485 C83.5458133,143.722897 86.7016722,139.82919 86.4062324,135.409255 C86.1107926,130.98932 82.4652662,127.557343 78.0695484,127.560922 C77.9158509,127.560922 77.7912545,127.435356 77.7912545,127.280461 C77.7912545,127.125567 77.9158509,127 78.0695484,127 C83.0017006,127 87,131.029437 87,136 C87,140.970563 83.0017006,145 78.0695484,145 L78.086246,144.971954 Z" id="Path" fill="#FFFFFF"></path>
                    <path d="M254,68 L254,92.8449087 C254,92.8449087 249.866939,96.3893282 242.599031,95.9646773 C235.869488,95.5739985 234.803977,93.1336713 234.803977,93.1336713 L232,80.246932 L253.977568,68.022648" id="Path" fill="#FBAD83"></path>
                    <path d="M234.261056,90.9770467 C236.951558,89.8500254 239.461291,88.3160822 241.706271,86.4265493 C245.092939,83.7659961 247.631362,80.1372636 249,76 L234.244224,78.869166 L232,80.1430757 L234.311551,91" id="Path" fill="#E68D5C"></path>
                    <rect id="Rectangle" fill="#1A2249" x="216" y="53" width="13" height="1"></rect>
                    <path d="M220.122403,36.2228542 C220.122403,36.2228542 218,41.540848 218,46.1933816 C218,49.9415719 219.493543,57 219.493543,57 L228,35 L220.122403,36.2228542 Z" id="Path" fill="#7A4029"></path>
                    <path d="M219.967988,78.2827458 C226.672561,92.4754361 243.277554,84.0893584 250.395576,76.931061 C257.513598,69.7727637 256.541434,42.4180428 254.557998,37.2365844 C252.574562,32.0551261 236.120422,27.8536392 227.471523,31.193427 C218.822623,34.5332148 213.274589,64.0844235 219.967988,78.2827458" id="Path" fill="#FBAD83"></path>
                    <path d="M218,68 L218,68 C218.335017,71.5088408 219.213661,74.9395683 220.602457,78.1614749 C223.249306,83.8830261 227.449861,86 232,86 L232,86 C227.45541,86 223.249306,83.8944692 220.608006,78.1614749 C219.21921,74.9395683 218.340566,71.5088408 218.005549,68" id="Path" fill="#D7C5BE"></path>
                    <path d="M257,57 L249.398113,57 C249.398113,57 244.366038,70.1951981 240.04717,71.4632052 C239.700515,71.558438 239.342513,71.6060477 238.983019,71.6047238 C235.383019,71.6047238 230.59434,67.2346281 224.549057,66.9798946 C223.983019,66.9798946 223.484906,66.9402694 223.026415,66.9402694 C220.439623,66.9402694 219.279245,67.3252001 218,68.1912942 C218.341745,71.6628449 219.238033,75.0571125 220.654717,78.2447785 C223.349057,83.9055241 227.639623,86 232.275472,86 C239.3,86 247.133962,81.2223307 251.475472,76.8861995 C254.962264,73.4048409 256.530189,65.168456 256.988679,57" id="Path" fill="#D48C68"></path>
                    <path d="M254.349528,58.7160752 C251.921515,58.4922102 249.688415,57.2952865 248.161082,55.3991183 C246.633749,53.5029501 245.942866,51.0697786 246.246483,48.6562283 C246.625964,45.6165623 247.524442,44.6423104 246.731996,41.7640919 C245.180586,36.0187891 238.249469,36.5588031 233.595241,38.7077244 C228.941012,40.8566458 223.857077,40.8455115 219.850199,37.822547 C217.941631,36.3862213 215.541969,32.3834377 218.136952,28.2025052 C220.731936,24.0215727 229.962264,19 229.962264,19 C229.962264,19 228.846142,21.5107864 229.214462,22.8135003 C229.582782,24.1162143 254.109561,16.7620042 259.13211,27.6346555 C264.154659,38.5073069 257.457927,59 257.457927,59 L254.349528,58.7160752 Z" id="Path" fill="#7A4029"></path>
                    <path d="M259,58.8544093 C259,62.6397671 254.037101,66 250.99273,66 C247.948359,66 248.000056,62.6397671 248.000056,58.8544093 C248.000056,55.0690516 250.470017,52 253.514388,52 C256.558759,52 259,55.0690516 259,58.8544093 Z" id="Path" fill="#FBAD83"></path>
                    <path d="M255.964516,58.3584073 C256.25911,59.9047497 254.655746,61.7114728 253.511176,61.9771674 C252.366605,62.242862 254.829604,60.133247 254.530181,58.5869046 C254.230758,57.0405622 252.202405,56.3072451 253.346976,56.0415506 C254.491546,55.775856 255.665092,56.8120648 255.964516,58.3584073 Z" id="Path" fill="#E68D5C"></path>
                    <path d="M221,62 C218.243151,62 216,59.085022 216,55.5 C216,51.914978 218.243151,49 221,49 C223.756849,49 226,51.914978 226,55.5 C226,59.085022 223.728311,62 221,62 Z M221,49.5726872 C218.557078,49.5726872 216.570776,52.2299559 216.570776,55.5 C216.570776,58.7700441 218.557078,61.4273128 221,61.4273128 C223.442922,61.4273128 225.429224,58.7643172 225.429224,55.5 C225.429224,52.2356828 223.414384,49.5726872 221,49.5726872 L221,49.5726872 Z" id="Shape" fill="#1A2249" fill-rule="nonzero"></path>
                    <path d="M232,62 C229.243151,62 227,59.085022 227,55.5 C227,51.914978 229.243151,49 232,49 C234.756849,49 237,51.914978 237,55.5 C237,59.085022 234.756849,62 232,62 Z M232,49.5726872 C229.557078,49.5726872 227.570776,52.2299559 227.570776,55.5 C227.570776,58.7700441 229.557078,61.4273128 232,61.4273128 C234.442922,61.4273128 236.429224,58.7643172 236.429224,55.5 C236.429224,52.2356828 234.442922,49.5726872 232,49.5726872 L232,49.5726872 Z" id="Shape" fill="#1A2249" fill-rule="nonzero"></path>
                    <rect id="Rectangle" fill="#1A2249" x="237" y="53" width="12" height="1"></rect>
                    <rect id="Rectangle" fill="#1A2249" x="225" y="53" width="2" height="1"></rect>
                    <path d="M220,70 L231,70 C231,70 228.795284,74.8652488 225.057878,74.9974865 C221.320472,75.1297243 220,70 220,70 Z" id="Path" fill="#FFFFFF"></path>
                    <path d="M291.92046,131 L275.594511,136.642095 L283.476004,168.491724 L265.967831,237.014973 L261.002491,239.954504 C261.002491,239.954504 260.721009,247.289228 266.14235,248.699752 C271.563691,250.110276 273.528434,246.093104 273.528434,246.093104 L273.528434,240.716187 C277.868885,229.725385 299.649952,174.444135 299.98773,170.87833 C300.364916,166.917579 291.92046,131 291.92046,131 Z" id="Path" fill="#FBAD83"></path>
                    <path d="M273.397728,139.191603 C273.397728,139.191603 266.959294,120.024886 269.663098,112.292342 C271.612091,106.717189 275.374885,104.837987 278.275842,104.054514 C281.176799,103.27104 288.26302,110.975198 292.104676,124.419151 C294.763417,133.729997 295,134.72921 295,134.72921 C295,134.72921 281.610535,142.467432 273.397728,139.191603 Z" id="Path" fill="#60D6E6"></path>
                    <path d="M257.962572,92.782019 C257.962572,92.782019 259.647682,91.0224762 263.984033,92.782019 C268.320383,94.5415618 269.19664,97.4272119 268.966342,100.318727 C268.736044,103.210242 263.433563,104.676528 260.085811,103.697049 C256.738058,102.71757 253.772264,98.9052278 254.013796,97.3568302 C254.255329,95.8084326 257.962572,92.782019 257.962572,92.782019 Z" id="Path" fill="#A55B3A"></path>
                    <path d="M50.8049796,164.552108 C48.8304233,163.275355 47.4853822,161.202493 47.1077051,158.854185 C46.7300279,156.505877 47.3556022,154.105264 48.8272955,152.255333 C49.0024618,152.031233 49.1889292,151.812879 49.3923481,151.588778 C53.2629584,147.221699 56.8736445,147.480277 59.9701327,149.0145 C63.066621,150.548724 62.3207515,157.421127 59.7441117,160.932029 C57.1674719,164.442931 52.6187985,165.638131 51.0083986,164.684269 L50.8049796,164.552108 Z" id="Path" fill="#A55B3A"></path>
                    <polygon id="Path" fill="#FFFFFF" points="127 71 134.000261 81 141.276168 75.6524986 149 79.4089604 147.966327 71.2871913"></polygon>
                    <path d="M127,44 L127,70.6235109 C127,70.6235109 131.512919,74.4171194 139.453589,73.9621139 C146.797129,73.5412338 147.962679,70.9078893 147.962679,70.9078893 L151,57.0984716 L127,44 Z" id="Path" fill="#A55B3A"></path>
                    <path d="M148.509373,68.8224504 C144.606068,69.6828732 140.095708,67.275939 136.725703,64.6215629 C130.51332,59.728963 128,50 128,50 L148.554761,56.1241854 L151,57.4569971 L148.509373,68.8224504 Z" id="Path" fill="#8E4A2F"></path>
                    <path d="M163.649104,13.1511994 C163.649104,13.1511994 167.23643,14.4385752 166.987632,22.6866974 C166.866126,26.5878362 165.350191,34 165.350191,34 L156,11 L163.649104,13.1511994 Z" id="Path" fill="#1A2249"></path>
                    <path d="M163.79711,56.7283589 C156.587609,71.9403211 138.693607,62.9511772 131.027166,55.2857965 C123.360726,47.6204158 124.42692,18.3165987 126.548025,12.755662 C128.669129,7.19472526 146.376971,2.69732476 155.718859,6.28393094 C165.060747,9.87053713 171.00661,41.5107396 163.79711,56.7283589 Z" id="Path" fill="#A55B3A"></path>
                    <path d="M136.298993,31 C136.298993,31 138.268645,47.9938103 142.81614,49.3528583 C146.721965,50.4949155 152.106424,44.8360223 159.109009,44.5333772 C163.014834,44.3620686 164.415351,44.7389474 166,45.8353223 C165.642925,49.5702259 164.700926,53.2219958 163.210125,56.6506035 C156.079205,72.0055618 138.38024,62.9319178 130.79736,55.1944806 C127.148204,51.4371126 125.474279,42.5690389 125,33.7866194 L136.298993,31 Z" id="Path" fill="#1A2249"></path>
                    <path d="M133.349703,36.8197363 C133.349703,36.8197363 135.545028,37.0384705 136.441079,35.7316739 C137.337129,34.4248774 134.760983,27.0440005 137.365131,19.2144382 C139.218836,13.6058691 147.647314,10.3921591 154.546905,11.7494328 C161.446497,13.1067065 163.182595,13.7180405 163.888235,11.7101728 C164.593875,9.7023051 161.821718,4.97988998 159.407981,3.11223649 C156.994244,1.24458301 145.793609,-2.05886415 136.446679,1.76617992 C127.099749,5.591224 125.246044,8.13190577 123.129124,14.2003775 C121.012204,20.2688491 122.384282,35.4736798 123.129124,36.4439622 C123.873966,37.4142447 133.349703,36.8197363 133.349703,36.8197363 Z" id="Path" fill="#1A2249"></path>
                    <path d="M123,35.8525741 C123,39.6365055 128.39912,43 131.711283,43 C135.023447,43 134.999998,39.6365055 134.999998,35.8525741 C134.999998,32.0686427 132.315093,29 128.997068,29 C125.679042,29 123,32.0686427 123,35.8525741 Z" id="Path" fill="#A55B3A"></path>
                    <path d="M166,46 C166,46 166,64.3708541 163.873703,67.6853869 C161.747406,70.9999196 154.776031,71.7158136 151.619809,70.3347583 C148.463586,68.953703 143.313961,63.9706299 142.057009,59.7541835 C140.800057,55.5377371 160.745167,49.4949155 160.745167,49.4949155 L166,46 Z" id="Path" fill="#1A2249"></path>
                    <path d="M125.048667,33.7501929 C124.64975,35.5507424 126.789392,37.6591279 128.31857,37.972772 C129.847749,38.2864162 126.559713,35.823729 126.958629,34.0173712 C127.357545,32.2110134 130.06534,31.3630126 128.536161,31.0493685 C127.006982,30.7357244 125.441539,31.9496433 125.048667,33.7501929 Z" id="Path" fill="#8E4A2F"></path>
                    <path d="M163,51.5604315 C163,51.5604315 155.488889,51.7489879 154.238889,51.3718751 L153,51 C153,51 153.033333,54.4621051 156.516667,55.6562957 C160,56.8504862 161.905556,54.6454238 162.372222,53.4250449 C162.838889,52.2046659 163,51.5604315 163,51.5604315 Z" id="Path" fill="#FFFFFF"></path>
                    <path d="M161.523532,28.9755906 C161.267668,28.9718288 161.050453,28.7241521 161.007543,28.3872417 C160.964634,28.0503313 161.108317,27.7206628 161.348859,27.6041236 C163.385336,26.7986255 165.552954,26.7986255 167.58943,27.6041236 C167.780204,27.6627846 167.931158,27.8572876 167.981897,28.1098139 C168.032637,28.3623402 167.974875,28.6316498 167.831722,28.8099947 C167.688569,28.9883396 167.483403,29.0465943 167.298309,28.9614517 C165.468566,28.2598413 163.527948,28.2598413 161.698204,28.9614517 C161.640971,28.9790756 161.58194,28.9838538 161.523532,28.9755906 L161.523532,28.9755906 Z" id="Path" fill="#1A2249"></path>
                    <path d="M147.595154,29.9999747 C147.45188,30.0011932 147.312938,29.9583049 147.204052,29.8792501 C146.957112,29.6972208 146.93059,29.3797845 147.144794,29.1699929 C147.287013,29.0341777 150.62916,25.8400052 156.584581,27.4546971 C156.786762,27.5086105 156.939702,27.6499892 156.985789,27.8255771 C157.031876,28.0011649 156.964109,28.1842861 156.808015,28.3059605 C156.651921,28.4276349 156.431214,28.4693774 156.229033,28.415464 C151.032114,27.0070099 148.158104,29.7132537 148.039589,29.8289482 C147.927253,29.9374918 147.765359,29.9997918 147.595154,29.9999747 Z" id="Path" fill="#1A2249"></path>
                </g>
            </g>
        </g>
    </g>
</svg>